<svg id="Icon_ionic-md-analytics" data-name="Icon ionic-md-analytics" xmlns="http://www.w3.org/2000/svg" width="15.95" height="14.811" viewBox="0 0 15.95 14.811">
  <path id="Path_12885" data-name="Path 12885" d="M14.616,12.245l-3.1,4.748a1.691,1.691,0,0,1,.384,1.079,1.709,1.709,0,0,1-3.417,0,1.872,1.872,0,0,1,.028-.317l-2.05-1.192a1.7,1.7,0,0,1-1.185.477,1.718,1.718,0,0,1-.84-.221L2.25,18.862V20.9a1.524,1.524,0,0,0,1.52,1.52H16.68A1.524,1.524,0,0,0,18.2,20.9V13.331l-2.086-1.385a1.707,1.707,0,0,1-1.5.3Z" transform="translate(-2.25 -7.607)" fill="#12161c"/>
  <path id="Path_12886" data-name="Path 12886" d="M5.276,9.391A1.709,1.709,0,0,1,6.984,11.1c0,.075-.007.149-.014.221l2.139,1.2a1.693,1.693,0,0,1,1.082-.384,1.788,1.788,0,0,1,.37.039l3.111-4.82a1.691,1.691,0,0,1-.317-.99,1.709,1.709,0,1,1,3.417,0,1.857,1.857,0,0,1-.046.4l1.47.982V4.895a1.524,1.524,0,0,0-1.52-1.52H3.77a1.524,1.524,0,0,0-1.52,1.52v8.162l1.424-1.363a1.708,1.708,0,0,1,1.6-2.3Z" transform="translate(-2.25 -3.375)" fill="#12161c"/>
</svg>
