<svg width="24" height="16" viewBox="0 0 24 16" fill="none" xmlns="http://www.w3.org/2000/svg">
<path d="M7.5 0.5C5.51088 0.5 3.60322 1.29018 2.1967 2.6967C0.790176 4.10322 0 6.01088 0 8C0 9.98912 0.790176 11.8968 2.1967 13.3033C3.60322 14.7098 5.51088 15.5 7.5 15.5H16.5C18.4891 15.5 20.3968 14.7098 21.8033 13.3033C23.2098 11.8968 24 9.98912 24 8C24 6.01088 23.2098 4.10322 21.8033 2.6967C20.3968 1.29018 18.4891 0.5 16.5 0.5L7.5 0.5ZM16.5 14C14.9087 14 13.3826 13.3679 12.2574 12.2426C11.1321 11.1174 10.5 9.5913 10.5 8C10.5 6.4087 11.1321 4.88258 12.2574 3.75736C13.3826 2.63214 14.9087 2 16.5 2C18.0913 2 19.6174 2.63214 20.7426 3.75736C21.8679 4.88258 22.5 6.4087 22.5 8C22.5 9.5913 21.8679 11.1174 20.7426 12.2426C19.6174 13.3679 18.0913 14 16.5 14Z" fill="#2F52E4"/>
</svg>
