<svg xmlns="http://www.w3.org/2000/svg" width="13.835" height="13.835" viewBox="0 0 13.835 13.835">
  <path id="Icon_ionic-md-call" data-name="Icon ionic-md-call" d="M17.567,14.108a9.021,9.021,0,0,1-2.729-.423.719.719,0,0,0-.769.192l-1.691,1.691A11.559,11.559,0,0,1,7.305,10.5L9,8.8a.8.8,0,0,0,.192-.769,8.359,8.359,0,0,1-.461-2.767A.771.771,0,0,0,7.959,4.5H5.269a.771.771,0,0,0-.769.769A13.056,13.056,0,0,0,17.567,18.335a.771.771,0,0,0,.769-.769v-2.69A.771.771,0,0,0,17.567,14.108Z" transform="translate(-4.5 -4.5)" fill="#838595"/>
</svg>
