<svg width="16" height="14" viewBox="0 0 16 14" fill="none" xmlns="http://www.w3.org/2000/svg">
<path d="M12 0.650024V13.325C14.1 12.025 15.5 9.62502 15.5 6.97502C15.5 4.32502 14.1 1.97502 12 0.650024Z" fill="#ED4C5C"/>
<path d="M4 0.650024C1.9 1.97502 0.5 4.37502 0.5 7.00002C0.5 9.62502 1.9 12.025 4 13.35V0.650024Z" fill="#ED4C5C"/>
<path d="M10.725 6.9C10.625 6.85 10.6 6.75 10.625 6.7L10.875 5.8L10 5.975C9.975 5.975 9.875 5.975 9.85 5.8L9.775 5.5L9.175 6.2C9.175 6.2 8.775 6.625 8.9 5.975L9.15 4.6L8.675 4.85C8.65 4.85 8.55 4.875 8.425 4.625L8 3.75L7.55 4.575C7.425 4.825 7.325 4.8 7.3 4.8L6.825 4.55L7.075 5.925C7.2 6.575 6.8 6.15 6.8 6.15L6.2 5.45L6.125 5.75C6.075 5.925 6 5.925 5.975 5.925L5.1 5.75L5.35 6.65C5.35 6.725 5.35 6.8 5.25 6.85L5 7C5 7 6 7.8 6.325 8.075C6.4 8.125 6.55 8.275 6.5 8.45L6.375 8.8L7.75 8.6C7.825 8.6 7.975 8.6 7.95 8.825L7.875 10.25H8.125L8.05 8.825C8.05 8.6 8.2 8.6 8.25 8.6L9.625 8.8L9.5 8.45C9.45 8.275 9.6 8.125 9.675 8.075C10 7.8 11 7 11 7L10.725 6.9Z" fill="#ED4C5C"/>
</svg>
