<svg width="400" height="254" viewBox="0 0 400 254" fill="none" xmlns="http://www.w3.org/2000/svg">
<path d="M0.561 45.89H5.907V44.845H2.42C3.707 43.668 5.687 42.183 5.687 40.236C5.687 38.795 4.763 37.816 3.135 37.816C1.716 37.816 0.594 38.663 0.55 40.401H1.76C1.793 39.499 2.266 38.883 3.146 38.883C4.081 38.883 4.444 39.455 4.444 40.291C4.444 41.864 2.453 43.316 0.561 44.977V45.89ZM7.00863 41.886C7.00863 44.218 7.62463 45.978 9.86863 45.978C12.1126 45.978 12.7286 44.218 12.7286 41.886C12.7286 39.598 12.1126 37.838 9.86863 37.838C7.62463 37.838 7.00863 39.598 7.00863 41.886ZM11.4966 41.886C11.4966 43.459 11.3316 44.834 9.86863 44.834C8.40563 44.834 8.24063 43.459 8.24063 41.886C8.24063 40.39 8.40563 38.982 9.86863 38.982C11.3316 38.982 11.4966 40.39 11.4966 41.886ZM14.0555 41.886C14.0555 44.218 14.6715 45.978 16.9155 45.978C19.1595 45.978 19.7755 44.218 19.7755 41.886C19.7755 39.598 19.1595 37.838 16.9155 37.838C14.6715 37.838 14.0555 39.598 14.0555 41.886ZM18.5435 41.886C18.5435 43.459 18.3785 44.834 16.9155 44.834C15.4525 44.834 15.2875 43.459 15.2875 41.886C15.2875 40.39 15.4525 38.982 16.9155 38.982C18.3785 38.982 18.5435 40.39 18.5435 41.886Z" fill="black"/>
<path d="M1.518 90H2.783V81.981H0.495V83.125H1.518V90ZM4.8357 81.959V86.59H6.0237C6.2327 85.996 6.7277 85.589 7.4647 85.589C8.5097 85.589 9.0267 86.183 9.0267 87.228C9.0267 88.218 8.5427 88.955 7.4647 88.955C6.6177 88.955 6.0457 88.515 5.8807 87.833H4.6597C4.8467 89.087 5.8037 90 7.4537 90C9.3127 90 10.2257 88.79 10.2257 87.195C10.2257 85.985 9.6207 84.522 7.6517 84.522C6.9367 84.522 6.2877 84.852 5.9907 85.248V83.059H9.6757V81.959H4.8357ZM11.5311 85.886C11.5311 88.218 12.1471 89.978 14.3911 89.978C16.6351 89.978 17.2511 88.218 17.2511 85.886C17.2511 83.598 16.6351 81.838 14.3911 81.838C12.1471 81.838 11.5311 83.598 11.5311 85.886ZM16.0191 85.886C16.0191 87.459 15.8541 88.834 14.3911 88.834C12.9281 88.834 12.7631 87.459 12.7631 85.886C12.7631 84.39 12.9281 82.982 14.3911 82.982C15.8541 82.982 16.0191 84.39 16.0191 85.886Z" fill="black"/>
<path d="M1.518 134H2.783V125.981H0.495V127.125H1.518V134ZM4.5057 129.886C4.5057 132.218 5.1217 133.978 7.3657 133.978C9.6097 133.978 10.2257 132.218 10.2257 129.886C10.2257 127.598 9.6097 125.838 7.3657 125.838C5.1217 125.838 4.5057 127.598 4.5057 129.886ZM8.9937 129.886C8.9937 131.459 8.8287 132.834 7.3657 132.834C5.9027 132.834 5.7377 131.459 5.7377 129.886C5.7377 128.39 5.9027 126.982 7.3657 126.982C8.8287 126.982 8.9937 128.39 8.9937 129.886ZM11.5526 129.886C11.5526 132.218 12.1686 133.978 14.4126 133.978C16.6566 133.978 17.2726 132.218 17.2726 129.886C17.2726 127.598 16.6566 125.838 14.4126 125.838C12.1686 125.838 11.5526 127.598 11.5526 129.886ZM16.0406 129.886C16.0406 131.459 15.8756 132.834 14.4126 132.834C12.9496 132.834 12.7846 131.459 12.7846 129.886C12.7846 128.39 12.9496 126.982 14.4126 126.982C15.8756 126.982 16.0406 128.39 16.0406 129.886Z" fill="black"/>
<path d="M0.99 170.959V175.59H2.178C2.387 174.996 2.882 174.589 3.619 174.589C4.664 174.589 5.181 175.183 5.181 176.228C5.181 177.218 4.697 177.955 3.619 177.955C2.772 177.955 2.2 177.515 2.035 176.833H0.814C1.001 178.087 1.958 179 3.608 179C5.467 179 6.38 177.79 6.38 176.195C6.38 174.985 5.775 173.522 3.806 173.522C3.091 173.522 2.442 173.852 2.145 174.248V172.059H5.83V170.959H0.99ZM7.68539 174.886C7.68539 177.218 8.30139 178.978 10.5454 178.978C12.7894 178.978 13.4054 177.218 13.4054 174.886C13.4054 172.598 12.7894 170.838 10.5454 170.838C8.30139 170.838 7.68539 172.598 7.68539 174.886ZM12.1734 174.886C12.1734 176.459 12.0084 177.834 10.5454 177.834C9.08239 177.834 8.91739 176.459 8.91739 174.886C8.91739 173.39 9.08239 171.982 10.5454 171.982C12.0084 171.982 12.1734 173.39 12.1734 174.886Z" fill="black"/>
<path d="M0.66 218.886C0.66 221.218 1.276 222.978 3.52 222.978C5.764 222.978 6.38 221.218 6.38 218.886C6.38 216.598 5.764 214.838 3.52 214.838C1.276 214.838 0.66 216.598 0.66 218.886ZM5.148 218.886C5.148 220.459 4.983 221.834 3.52 221.834C2.057 221.834 1.892 220.459 1.892 218.886C1.892 217.39 2.057 215.982 3.52 215.982C4.983 215.982 5.148 217.39 5.148 218.886Z" fill="black"/>
<path d="M143.013 244.809C142.21 245.106 141.671 245.821 141.671 246.789C141.671 248.252 142.859 249.198 144.509 249.198C146.17 249.198 147.358 248.252 147.358 246.789C147.358 245.832 146.819 245.117 146.005 244.809C146.654 244.49 147.149 243.863 147.149 243.005C147.149 241.85 146.28 240.838 144.509 240.838C142.738 240.838 141.869 241.839 141.869 243.005C141.869 243.896 142.331 244.468 143.013 244.809ZM144.509 244.413C143.673 244.413 143.079 243.896 143.079 243.17C143.079 242.323 143.651 241.883 144.509 241.883C145.389 241.883 145.95 242.334 145.95 243.159C145.95 243.885 145.345 244.413 144.509 244.413ZM144.509 245.359C145.455 245.359 146.126 245.843 146.126 246.745C146.126 247.548 145.521 248.153 144.509 248.153C143.486 248.153 142.87 247.559 142.87 246.745C142.87 245.81 143.585 245.359 144.509 245.359ZM154.194 241.355H151.697V249H154.194C156.647 249 158.253 247.559 158.253 245.205C158.253 242.84 156.647 241.355 154.194 241.355ZM152.951 247.977V242.378H154.194C155.998 242.378 156.966 243.456 156.966 245.205C156.966 246.943 155.998 247.977 154.194 247.977H152.951ZM162.048 243.896C162.983 243.896 163.72 244.49 163.742 245.425H160.387C160.519 244.468 161.201 243.896 162.048 243.896ZM164.886 247.196H163.533C163.302 247.669 162.873 248.043 162.103 248.043C161.179 248.043 160.464 247.438 160.376 246.437H165.007C165.04 246.228 165.051 246.03 165.051 245.821C165.051 244.039 163.83 242.84 162.103 242.84C160.31 242.84 159.078 244.061 159.078 245.964C159.078 247.867 160.365 249.099 162.103 249.099C163.588 249.099 164.545 248.252 164.886 247.196ZM165.867 245.964C165.867 247.867 167.099 249.099 168.837 249.099C170.322 249.099 171.29 248.274 171.631 247.086H170.278C170.047 247.713 169.585 248.043 168.837 248.043C167.825 248.043 167.154 247.295 167.154 245.964C167.154 244.644 167.825 243.896 168.837 243.896C169.585 243.896 170.069 244.27 170.278 244.853H171.631C171.29 243.577 170.322 242.84 168.837 242.84C167.099 242.84 165.867 244.072 165.867 245.964Z" fill="black"/>
<path d="M33.518 249H34.783V240.981H32.495V242.125H33.518V249ZM42.0251 241.355H39.5281V249H42.0251C44.4781 249 46.0841 247.559 46.0841 245.205C46.0841 242.84 44.4781 241.355 42.0251 241.355ZM40.7821 247.977V242.378H42.0251C43.8291 242.378 44.7971 243.456 44.7971 245.205C44.7971 246.943 43.8291 247.977 42.0251 247.977H40.7821ZM49.879 243.896C50.814 243.896 51.551 244.49 51.573 245.425H48.218C48.35 244.468 49.032 243.896 49.879 243.896ZM52.717 247.196H51.364C51.133 247.669 50.704 248.043 49.934 248.043C49.01 248.043 48.295 247.438 48.207 246.437H52.838C52.871 246.228 52.882 246.03 52.882 245.821C52.882 244.039 51.661 242.84 49.934 242.84C48.141 242.84 46.909 244.061 46.909 245.964C46.909 247.867 48.196 249.099 49.934 249.099C51.419 249.099 52.376 248.252 52.717 247.196ZM53.698 245.964C53.698 247.867 54.93 249.099 56.668 249.099C58.153 249.099 59.121 248.274 59.462 247.086H58.109C57.878 247.713 57.416 248.043 56.668 248.043C55.656 248.043 54.985 247.295 54.985 245.964C54.985 244.644 55.656 243.896 56.668 243.896C57.416 243.896 57.9 244.27 58.109 244.853H59.462C59.121 243.577 58.153 242.84 56.668 242.84C54.93 242.84 53.698 244.072 53.698 245.964Z" fill="black"/>
<path d="M253.518 249H254.783V240.981H252.495V242.125H253.518V249ZM261.973 242.84C261.841 241.773 261.06 240.783 259.498 240.783C257.496 240.783 256.66 242.301 256.66 244.809C256.66 247.361 257.265 249 259.597 249C261.313 249 262.226 247.845 262.226 246.327C262.226 244.655 261.203 243.687 259.762 243.687C258.926 243.687 258.134 244.039 257.738 244.699C257.771 242.598 258.354 241.828 259.487 241.828C260.279 241.828 260.664 242.191 260.818 242.84H261.973ZM259.487 244.743C260.543 244.743 261.027 245.425 261.027 246.382C261.027 247.328 260.455 247.955 259.531 247.955C258.464 247.955 257.881 247.295 257.881 246.305C257.881 245.238 258.662 244.743 259.487 244.743ZM269.083 241.355H266.586V249H269.083C271.536 249 273.142 247.559 273.142 245.205C273.142 242.84 271.536 241.355 269.083 241.355ZM267.84 247.977V242.378H269.083C270.887 242.378 271.855 243.456 271.855 245.205C271.855 246.943 270.887 247.977 269.083 247.977H267.84ZM276.937 243.896C277.872 243.896 278.609 244.49 278.631 245.425H275.276C275.408 244.468 276.09 243.896 276.937 243.896ZM279.775 247.196H278.422C278.191 247.669 277.762 248.043 276.992 248.043C276.068 248.043 275.353 247.438 275.265 246.437H279.896C279.929 246.228 279.94 246.03 279.94 245.821C279.94 244.039 278.719 242.84 276.992 242.84C275.199 242.84 273.967 244.061 273.967 245.964C273.967 247.867 275.254 249.099 276.992 249.099C278.477 249.099 279.434 248.252 279.775 247.196ZM280.756 245.964C280.756 247.867 281.988 249.099 283.726 249.099C285.211 249.099 286.179 248.274 286.52 247.086H285.167C284.936 247.713 284.474 248.043 283.726 248.043C282.714 248.043 282.043 247.295 282.043 245.964C282.043 244.644 282.714 243.896 283.726 243.896C284.474 243.896 284.958 244.27 285.167 244.853H286.52C286.179 243.577 285.211 242.84 283.726 242.84C281.988 242.84 280.756 244.072 280.756 245.964Z" fill="black"/>
<path d="M361.638 242.961H362.859C362.936 242.4 363.343 241.872 364.223 241.872C365.081 241.872 365.532 242.334 365.532 243.027C365.532 243.885 364.839 244.215 363.706 244.226H363.409V245.26H363.695C365.004 245.26 365.686 245.623 365.686 246.679C365.686 247.427 365.224 247.999 364.289 247.999C363.343 247.999 362.793 247.427 362.738 246.679H361.528C361.605 248.252 362.782 249.044 364.3 249.044C365.972 249.044 366.874 248.076 366.874 246.8C366.874 245.689 366.335 244.996 365.499 244.743V244.699C366.126 244.49 366.731 243.841 366.731 242.884C366.731 241.718 365.862 240.794 364.267 240.794C362.804 240.794 361.726 241.575 361.638 242.961ZM369.049 249H370.314V240.981H368.026V242.125H369.049V249ZM377.556 241.355H375.059V249H377.556C380.009 249 381.615 247.559 381.615 245.205C381.615 242.84 380.009 241.355 377.556 241.355ZM376.313 247.977V242.378H377.556C379.36 242.378 380.328 243.456 380.328 245.205C380.328 246.943 379.36 247.977 377.556 247.977H376.313ZM385.41 243.896C386.345 243.896 387.082 244.49 387.104 245.425H383.749C383.881 244.468 384.563 243.896 385.41 243.896ZM388.248 247.196H386.895C386.664 247.669 386.235 248.043 385.465 248.043C384.541 248.043 383.826 247.438 383.738 246.437H388.369C388.402 246.228 388.413 246.03 388.413 245.821C388.413 244.039 387.192 242.84 385.465 242.84C383.672 242.84 382.44 244.061 382.44 245.964C382.44 247.867 383.727 249.099 385.465 249.099C386.95 249.099 387.907 248.252 388.248 247.196ZM389.229 245.964C389.229 247.867 390.461 249.099 392.199 249.099C393.684 249.099 394.652 248.274 394.993 247.086H393.64C393.409 247.713 392.947 248.043 392.199 248.043C391.187 248.043 390.516 247.295 390.516 245.964C390.516 244.644 391.187 243.896 392.199 243.896C392.947 243.896 393.431 244.27 393.64 244.853H394.993C394.652 243.577 393.684 242.84 392.199 242.84C390.461 242.84 389.229 244.072 389.229 245.964Z" fill="black"/>
<path d="M32.5 179C38.6667 166.667 58.2 140.3 87 133.5C115.8 126.7 122.5 158.5 152.5 86.0001C157.167 75.8334 169.2 61.6001 180 86.0001C193.5 116.5 199 161 239.5 168C280 175 274 100.5 327 81.5C336 79.5 345 79 359.5 84C371.1 88 391 88.3333 399.5 88" stroke="black" stroke-width="3"/>
<line x1="306.5" y1="42" x2="306.5" y2="219" stroke="black" stroke-opacity="0.23" stroke-dasharray="5 5"/>
<line x1="32" y1="41.5" x2="399" y2="41.5" stroke="black" stroke-opacity="0.23" stroke-dasharray="5 5"/>
<line x1="32" y1="85.5" x2="399" y2="85.5" stroke="black" stroke-opacity="0.23" stroke-dasharray="5 5"/>
<line x1="32" y1="129.5" x2="399" y2="129.5" stroke="black" stroke-opacity="0.23" stroke-dasharray="5 5"/>
<line x1="32" y1="174.5" x2="399" y2="174.5" stroke="black" stroke-opacity="0.23" stroke-dasharray="5 5"/>
<line x1="32" y1="218.5" x2="399" y2="218.5" stroke="black" stroke-opacity="0.23" stroke-dasharray="5 5"/>
<rect x="116" width="100" height="66" rx="10" fill="#FFD200"/>
<path d="M140.44 20H141.64L139.15 13.04H137.83L135.34 20H136.53L137.03 18.58H139.94L140.44 20ZM139.62 17.65H137.35L138.49 14.42L139.62 17.65ZM142.723 20H143.863V12.6H142.723V20ZM145.359 20H146.499V12.6H145.359V20ZM150.774 18.47C150.774 19.59 151.384 20 152.364 20H153.264V19.05H152.564C152.084 19.05 151.924 18.88 151.924 18.47V15.42H153.264V14.49H151.924V13.12H150.774V14.49H150.124V15.42H150.774V18.47ZM154.314 20H155.454V14.49H154.314V20ZM154.894 13.76C155.294 13.76 155.614 13.44 155.614 13.03C155.614 12.62 155.294 12.3 154.894 12.3C154.484 12.3 154.164 12.62 154.164 13.03C154.164 13.44 154.484 13.76 154.894 13.76ZM164.761 20H165.891V16.75C165.891 15.21 164.911 14.4 163.621 14.4C162.821 14.4 162.041 14.82 161.701 15.49C161.321 14.77 160.591 14.4 159.721 14.4C159.061 14.4 158.461 14.67 158.091 15.12V14.49H156.951V20H158.091V16.92C158.091 15.91 158.641 15.39 159.481 15.39C160.311 15.39 160.861 15.91 160.861 16.92V20H161.991V16.92C161.991 15.91 162.541 15.39 163.381 15.39C164.211 15.39 164.761 15.91 164.761 16.92V20ZM169.662 15.36C170.512 15.36 171.182 15.9 171.202 16.75H168.152C168.272 15.88 168.892 15.36 169.662 15.36ZM172.242 18.36H171.012C170.802 18.79 170.412 19.13 169.712 19.13C168.872 19.13 168.222 18.58 168.142 17.67H172.352C172.382 17.48 172.392 17.3 172.392 17.11C172.392 15.49 171.282 14.4 169.712 14.4C168.082 14.4 166.962 15.51 166.962 17.24C166.962 18.97 168.132 20.09 169.712 20.09C171.062 20.09 171.932 19.32 172.242 18.36ZM176.111 20H177.251V16.92C177.251 15.91 177.801 15.39 178.641 15.39C179.471 15.39 180.021 15.91 180.021 16.92V20H181.151V16.75C181.151 15.21 180.191 14.4 178.961 14.4C178.251 14.4 177.631 14.67 177.251 15.13V12.6H176.111V20ZM182.605 20H183.745V14.49H182.605V20ZM183.185 13.76C183.585 13.76 183.905 13.44 183.905 13.03C183.905 12.62 183.585 12.3 183.185 12.3C182.775 12.3 182.455 12.62 182.455 13.03C182.455 13.44 182.775 13.76 183.185 13.76ZM184.862 17.22C184.862 18.92 186.012 20.09 187.462 20.09C188.362 20.09 189.022 19.64 189.372 19.17V20.09C189.372 21.19 188.712 21.73 187.832 21.73C187.042 21.73 186.432 21.34 186.262 20.77H185.132C185.272 21.99 186.362 22.72 187.832 22.72C189.552 22.72 190.522 21.59 190.522 20.09V14.49H189.372V15.29C189.032 14.82 188.362 14.4 187.462 14.4C186.012 14.4 184.862 15.52 184.862 17.22ZM189.372 17.24C189.372 18.43 188.562 19.1 187.702 19.1C186.852 19.1 186.032 18.41 186.032 17.22C186.032 16.03 186.852 15.39 187.702 15.39C188.562 15.39 189.372 16.06 189.372 17.24ZM192.02 20H193.16V16.92C193.16 15.91 193.71 15.39 194.55 15.39C195.38 15.39 195.93 15.91 195.93 16.92V20H197.06V16.75C197.06 15.21 196.1 14.4 194.87 14.4C194.16 14.4 193.54 14.67 193.16 15.13V12.6H192.02V20Z" fill="black"/>
<path d="M150.312 52H153.072V34.504H148.08V37H150.312V52ZM156.351 34.576V36.904H165.231L158.487 52H161.247L167.919 36.616V34.576H156.351ZM170.26 43.024C170.26 48.112 171.604 51.952 176.5 51.952C181.396 51.952 182.74 48.112 182.74 43.024C182.74 38.032 181.396 34.192 176.5 34.192C171.604 34.192 170.26 38.032 170.26 43.024ZM180.052 43.024C180.052 46.456 179.692 49.456 176.5 49.456C173.308 49.456 172.948 46.456 172.948 43.024C172.948 39.76 173.308 36.688 176.5 36.688C179.692 36.688 180.052 39.76 180.052 43.024Z" fill="black"/>
<path d="M167.711 68.2819C167.319 68.6773 166.681 68.6773 166.289 68.2819L163.49 65.4535C162.865 64.822 163.312 63.75 164.201 63.75L169.799 63.75C170.688 63.75 171.135 64.822 170.51 65.4535L167.711 68.2819Z" fill="#FFD200"/>
<circle cx="306.5" cy="94.5" r="6.5" fill="#FFD200"/>
<rect x="281" y="57" width="48" height="24" rx="11.5" fill="black"/>
<path d="M296.932 74H298.542V63.794H295.63V65.25H296.932V74ZM305.607 74H307.175V71.872H308.477V70.486H307.175V63.92H305.243L300.539 70.668V71.872H305.607V74ZM302.373 70.486L305.677 65.544V70.486H302.373ZM309.799 68.764C309.799 71.732 310.583 73.972 313.439 73.972C316.295 73.972 317.079 71.732 317.079 68.764C317.079 65.852 316.295 63.612 313.439 63.612C310.583 63.612 309.799 65.852 309.799 68.764ZM315.511 68.764C315.511 70.766 315.301 72.516 313.439 72.516C311.577 72.516 311.367 70.766 311.367 68.764C311.367 66.86 311.577 65.068 313.439 65.068C315.301 65.068 315.511 66.86 315.511 68.764Z" fill="white"/>
</svg>
