<svg width="134" height="128" viewBox="0 0 134 128" fill="none" xmlns="http://www.w3.org/2000/svg">
<path d="M113.33 15.2861L77.3072 5.57395C64.2408 2.05112 54.5831 7.69814 51.0704 20.8888L39.1735 65.5639C35.6033 78.9708 41.2071 88.547 54.2734 92.0699L90.2963 101.782C103.573 105.362 112.97 99.8296 116.54 86.4228L128.437 41.7476C131.95 28.557 126.607 18.8657 113.33 15.2861Z" fill="url(#paint0_linear)"/>
<g opacity="0.5" filter="url(#filter0_f)">
<path d="M103.918 27.52L79.3753 20.9031C70.473 18.5029 63.8931 22.3503 61.4999 31.3372L53.3944 61.7748C50.962 70.909 54.7799 77.4334 63.6822 79.8335L88.2249 86.4505C97.2706 88.8893 103.673 85.1203 106.105 75.9861L114.211 45.5485C116.604 36.5616 112.964 29.9588 103.918 27.52Z" fill="#39B93A"/>
</g>
<g filter="url(#filter1_b)">
<mask id="path-3-outside-1" maskUnits="userSpaceOnUse" x="0" y="22.9702" width="105" height="106" fill="black">
<rect fill="white" y="22.9702" width="105" height="106"/>
<path d="M74.4173 23.9702H30.029C12.673 23.9702 1 36.2308 1 54.467V96.5547C1 114.739 12.673 127 30.029 127H74.4173C91.7732 127 103.395 114.739 103.395 96.5547V54.467C103.395 36.2308 91.7732 23.9702 74.4173 23.9702Z"/>
</mask>
<path d="M74.4173 23.9702H30.029C12.673 23.9702 1 36.2308 1 54.467V96.5547C1 114.739 12.673 127 30.029 127H74.4173C91.7732 127 103.395 114.739 103.395 96.5547V54.467C103.395 36.2308 91.7732 23.9702 74.4173 23.9702Z" fill="#72DC60" fill-opacity="0.35"/>
<path d="M74.4173 24.9702C74.9696 24.9702 75.4173 24.5225 75.4173 23.9702C75.4173 23.4179 74.9696 22.9702 74.4173 22.9702V24.9702ZM74.4173 22.9702C73.865 22.9702 73.4173 23.4179 73.4173 23.9702C73.4173 24.5225 73.865 24.9702 74.4173 24.9702V22.9702ZM74.4173 22.9702H30.029V24.9702H74.4173V22.9702ZM30.029 22.9702C21.1063 22.9702 13.5773 26.1275 8.28171 31.6905C2.99018 37.2493 0 45.1339 0 54.467H2C2 45.5639 4.84634 38.2001 9.73032 33.0695C14.6102 27.9432 21.5958 24.9702 30.029 24.9702V22.9702ZM0 54.467V96.5547H2V54.467H0ZM0 96.5547C0 105.863 2.99062 113.735 8.28213 119.287C13.5776 124.843 21.1063 128 30.029 128V126C21.5957 126 14.6099 123.027 9.7299 117.907C4.8459 112.782 2 105.431 2 96.5547H0ZM30.029 128H74.4173V126H30.029V128ZM74.4173 128C83.3402 128 90.8565 124.843 96.1394 119.286C101.418 113.733 104.395 105.862 104.395 96.5547H102.395C102.395 105.433 99.5612 112.784 94.6899 117.908C89.8229 123.027 82.8503 126 74.4173 126V128ZM104.395 96.5547V54.467H102.395V96.5547H104.395ZM104.395 54.467C104.395 45.1351 101.418 37.2506 96.1398 31.6915C90.8568 26.1277 83.3402 22.9702 74.4173 22.9702V24.9702C82.8503 24.9702 89.8226 27.943 94.6895 33.0686C99.5608 38.1988 102.395 45.5627 102.395 54.467H104.395Z" fill="url(#paint1_linear)" mask="url(#path-3-outside-1)"/>
</g>
<g filter="url(#filter2_bd)">
<mask id="path-5-inside-2" fill="white">
<path d="M46.1203 92.2167C44.9735 92.2167 43.8266 91.7788 42.9512 90.8979L30.802 78.6734C29.051 76.9116 29.051 74.0577 30.802 72.301C32.5529 70.5392 35.3842 70.534 37.1351 72.2958L46.1203 81.3367L67.2546 60.0714C69.0056 58.3095 71.8368 58.3095 73.5878 60.0714C75.3387 61.8332 75.3387 64.6871 73.5878 66.4489L49.2894 90.8979C48.4139 91.7788 47.2671 92.2167 46.1203 92.2167Z"/>
</mask>
<path d="M46.1203 92.2167C44.9735 92.2167 43.8266 91.7788 42.9512 90.8979L30.802 78.6734C29.051 76.9116 29.051 74.0577 30.802 72.301C32.5529 70.5392 35.3842 70.534 37.1351 72.2958L46.1203 81.3367L67.2546 60.0714C69.0056 58.3095 71.8368 58.3095 73.5878 60.0714C75.3387 61.8332 75.3387 64.6871 73.5878 66.4489L49.2894 90.8979C48.4139 91.7788 47.2671 92.2167 46.1203 92.2167Z" fill="url(#paint2_linear)"/>
<path d="M42.9512 90.8979L42.8093 91.0389L42.9512 90.8979ZM30.802 78.6734L30.9438 78.5324L30.802 78.6734ZM30.802 72.301L30.9436 72.4422L30.9438 72.442L30.802 72.301ZM37.1351 72.2958L37.277 72.1549L37.1351 72.2958ZM46.1203 81.3367L45.9784 81.4777L46.1203 81.6204L46.2622 81.4777L46.1203 81.3367ZM67.2546 60.0714L67.1128 59.9304L67.2546 60.0714ZM73.5878 66.4489L73.4459 66.3079L73.5878 66.4489ZM49.2894 90.8979L49.4313 91.0389L49.2894 90.8979ZM46.1203 92.0167C45.0245 92.0167 43.9294 91.5985 43.093 90.7569L42.8093 91.0389C43.7239 91.9591 44.9225 92.4167 46.1203 92.4167V92.0167ZM43.093 90.7569L30.9438 78.5324L30.6601 78.8144L42.8093 91.0389L43.093 90.7569ZM30.9438 78.5324C29.2703 76.8485 29.2706 74.1207 30.9436 72.4422L30.6603 72.1598C28.8315 73.9946 28.8318 76.9747 30.6601 78.8144L30.9438 78.5324ZM30.9438 72.442C32.6169 70.7586 35.3208 70.754 36.9933 72.4368L37.277 72.1549C35.4475 70.3141 32.489 70.3198 30.6601 72.16L30.9438 72.442ZM36.9933 72.4368L45.9784 81.4777L46.2622 81.1957L37.277 72.1549L36.9933 72.4368ZM46.2622 81.4777L67.3965 60.2123L67.1128 59.9304L45.9784 81.1957L46.2622 81.4777ZM67.3965 60.2123C69.0693 58.5292 71.7732 58.5292 73.4459 60.2123L73.7296 59.9304C71.9005 58.0899 68.9419 58.0899 67.1128 59.9304L67.3965 60.2123ZM73.4459 60.2123C75.1194 61.8961 75.1194 64.6241 73.4459 66.3079L73.7296 66.5899C75.5581 64.7501 75.5581 61.7702 73.7296 59.9304L73.4459 60.2123ZM73.4459 66.3079L49.1476 90.7569L49.4313 91.0389L73.7296 66.5899L73.4459 66.3079ZM49.1476 90.7569C48.3112 91.5985 47.2161 92.0167 46.1203 92.0167V92.4167C47.3181 92.4167 48.5167 91.9591 49.4313 91.0389L49.1476 90.7569Z" fill="url(#paint3_linear)" fill-opacity="0.5" mask="url(#path-5-inside-2)"/>
</g>
<defs>
<filter id="filter0_f" x="38.6755" y="6.20361" width="90.252" height="94.9722" filterUnits="userSpaceOnUse" color-interpolation-filters="sRGB">
<feFlood flood-opacity="0" result="BackgroundImageFix"/>
<feBlend mode="normal" in="SourceGraphic" in2="BackgroundImageFix" result="shape"/>
<feGaussianBlur stdDeviation="7" result="effect1_foregroundBlur"/>
</filter>
<filter id="filter1_b" x="-24" y="-1.02979" width="152.395" height="153.03" filterUnits="userSpaceOnUse" color-interpolation-filters="sRGB">
<feFlood flood-opacity="0" result="BackgroundImageFix"/>
<feGaussianBlur in="BackgroundImage" stdDeviation="12"/>
<feComposite in2="SourceAlpha" operator="in" result="effect1_backgroundBlur"/>
<feBlend mode="normal" in="SourceGraphic" in2="effect1_backgroundBlur" result="shape"/>
</filter>
<filter id="filter2_bd" x="14.4888" y="43.75" width="75.4121" height="63.4668" filterUnits="userSpaceOnUse" color-interpolation-filters="sRGB">
<feFlood flood-opacity="0" result="BackgroundImageFix"/>
<feGaussianBlur in="BackgroundImage" stdDeviation="7.5"/>
<feComposite in2="SourceAlpha" operator="in" result="effect1_backgroundBlur"/>
<feColorMatrix in="SourceAlpha" type="matrix" values="0 0 0 0 0 0 0 0 0 0 0 0 0 0 0 0 0 0 127 0" result="hardAlpha"/>
<feOffset dx="5" dy="5"/>
<feGaussianBlur stdDeviation="5"/>
<feColorMatrix type="matrix" values="0 0 0 0 0.454902 0 0 0 0 0.870588 0 0 0 0 0.376471 0 0 0 0.5 0"/>
<feBlend mode="normal" in2="effect1_backgroundBlur" result="effect2_dropShadow"/>
<feBlend mode="normal" in="SourceGraphic" in2="effect2_dropShadow" result="shape"/>
</filter>
<linearGradient id="paint0_linear" x1="134" y1="20.8589" x2="55.1772" y2="68.8033" gradientUnits="userSpaceOnUse">
<stop stop-color="#9BF763"/>
<stop offset="1" stop-color="#26AB5B"/>
</linearGradient>
<linearGradient id="paint1_linear" x1="17.2996" y1="35.9733" x2="83.1061" y2="116.974" gradientUnits="userSpaceOnUse">
<stop stop-color="white" stop-opacity="0.25"/>
<stop offset="1" stop-color="white" stop-opacity="0"/>
</linearGradient>
<linearGradient id="paint2_linear" x1="71.6813" y1="64.7934" x2="21.1415" y2="67.0294" gradientUnits="userSpaceOnUse">
<stop stop-color="white"/>
<stop offset="1" stop-color="white" stop-opacity="0.2"/>
</linearGradient>
<linearGradient id="paint3_linear" x1="34.3807" y1="69.9764" x2="72.9409" y2="70.2653" gradientUnits="userSpaceOnUse">
<stop stop-color="white"/>
<stop offset="1" stop-color="white" stop-opacity="0"/>
</linearGradient>
</defs>
</svg>
