<svg width="14" height="15" viewBox="0 0 14 15" fill="none" xmlns="http://www.w3.org/2000/svg">
<path fill-rule="evenodd" clip-rule="evenodd" d="M4.34199 0.833984H2.31683C1.22027 0.833984 0.333008 1.72895 0.333008 2.831V4.87374C0.333008 5.97534 1.22046 6.87075 2.31683 6.87075H4.34199C5.43837 6.87075 6.32582 5.97534 6.32582 4.87374V2.831C6.32582 1.72895 5.43856 0.833984 4.34199 0.833984ZM2.31678 1.76416H4.34194C4.92295 1.76416 5.39554 2.24086 5.39554 2.83094V4.87369C5.39554 5.46338 4.9227 5.94046 4.34194 5.94046H2.31678C1.73603 5.94046 1.26319 5.46338 1.26319 4.87369V2.83094C1.26319 2.24086 1.73578 1.76416 2.31678 1.76416ZM11.6832 0.833984H9.65737C8.5608 0.833984 7.67354 1.72895 7.67354 2.831V4.87374C7.67354 5.97534 8.56099 6.87075 9.65737 6.87075H11.6832C12.779 6.87075 13.6664 5.97521 13.6664 4.87374V2.831C13.6664 1.72908 12.7792 0.833984 11.6832 0.833984ZM9.65731 1.76416H11.6831C12.2635 1.76416 12.7361 2.24093 12.7361 2.83094V4.87369C12.7361 5.46331 12.2633 5.94046 11.6831 5.94046H9.65731C9.07656 5.94046 8.60372 5.46338 8.60372 4.87369V2.83094C8.60372 2.24086 9.07631 1.76416 9.65731 1.76416ZM2.31683 8.13056H4.34199C5.43869 8.13056 6.32582 9.02565 6.32582 10.1282V12.1703C6.32582 13.2724 5.43856 14.1673 4.34199 14.1673H2.31683C1.22027 14.1673 0.333008 13.2724 0.333008 12.1703V10.1282C0.333008 9.02565 1.22014 8.13056 2.31683 8.13056ZM4.34194 9.06074H2.31678C1.73571 9.06074 1.26319 9.5375 1.26319 10.1282V12.1703C1.26319 12.7603 1.73578 13.237 2.31678 13.237H4.34194C4.92295 13.237 5.39554 12.7603 5.39554 12.1703V10.1282C5.39554 9.5375 4.92301 9.06074 4.34194 9.06074ZM11.6832 8.13056H9.65737C8.56067 8.13056 7.67354 9.02565 7.67354 10.1282V12.1703C7.67354 13.2724 8.5608 14.1673 9.65737 14.1673H11.6832C12.7792 14.1673 13.6664 13.2722 13.6664 12.1703V10.1282C13.6664 9.02578 12.7793 8.13056 11.6832 8.13056ZM9.65731 9.06074H11.6831C12.2636 9.06074 12.7361 9.53757 12.7361 10.1282V12.1703C12.7361 12.7603 12.2635 13.237 11.6831 13.237H9.65731C9.07631 13.237 8.60372 12.7603 8.60372 12.1703V10.1282C8.60372 9.5375 9.07624 9.06074 9.65731 9.06074Z" fill="#0F0F0F"/>
</svg>
