<svg id="Icon_ionic-ios-card" data-name="Icon ionic-ios-card" xmlns="http://www.w3.org/2000/svg" width="17.207" height="12.291" viewBox="0 0 17.207 12.291">
  <path id="Path_12887" data-name="Path 12887" d="M19.457,7.979A1.233,1.233,0,0,0,18.228,6.75H3.479A1.233,1.233,0,0,0,2.25,7.979V9.823H19.457Z" transform="translate(-2.25 -6.75)"/>
  <path id="Path_12888" data-name="Path 12888" d="M2.25,21.9a1.233,1.233,0,0,0,1.229,1.229H18.228A1.233,1.233,0,0,0,19.457,21.9V15.75H2.25ZM7.7,20.052H14a.539.539,0,0,1,.538.538h0a.539.539,0,0,1-.538.538H7.7a.539.539,0,0,1-.538-.538h0A.539.539,0,0,1,7.7,20.052Zm-2.765,0H5.4a.539.539,0,0,1,.538.538h0a.539.539,0,0,1-.538.538H4.939a.539.539,0,0,1-.538-.538h0A.539.539,0,0,1,4.939,20.052Z" transform="translate(-2.25 -10.834)"/>
</svg>
