<svg xmlns="http://www.w3.org/2000/svg" width="116.523" height="116.523" viewBox="0 0 116.523 116.523">
  <g id="Group_11522" data-name="Group 11522" transform="translate(-849 -365)">
    <g id="Group_11644" data-name="Group 11644">
      <circle id="Ellipse_37" data-name="Ellipse 37" cx="58.261" cy="58.261" r="58.261" transform="translate(849 365)" fill="#ffd200"/>
      <g id="Icon_ionic-ios-mail-unread" data-name="Icon ionic-ios-mail-unread" transform="translate(885 407)">
        <path id="Path_166" data-name="Path 166" d="M36.109,12.429a5.117,5.117,0,1,1-5.117-5.117A5.117,5.117,0,0,1,36.109,12.429Z" transform="translate(8.238 -7.313)" fill="#ff3636"/>
        <g id="Group_49" data-name="Group 49" transform="translate(0 1.706)">
          <path id="Path_167" data-name="Path 167" d="M42.6,17.679a7.1,7.1,0,0,1-1.663-.2l-5.053,5.149a.206.206,0,0,0,0,.3l8.027,8.549a1.383,1.383,0,0,1,0,1.961,1.39,1.39,0,0,1-1.961,0l-8-8.517a.219.219,0,0,0-.309,0L31.7,26.9a8.583,8.583,0,0,1-6.119,2.58,8.755,8.755,0,0,1-6.247-2.654l-1.876-1.908a.219.219,0,0,0-.309,0l-8,8.517a1.39,1.39,0,0,1-1.961,0,1.383,1.383,0,0,1,0-1.961l8.027-8.549a.227.227,0,0,0,0-.3L3.737,10.942a.21.21,0,0,0-.362.149V34.469A3.421,3.421,0,0,0,6.786,37.88H44.31a3.421,3.421,0,0,0,3.411-3.411V15.494A7.072,7.072,0,0,1,42.6,17.679Z" transform="translate(-3.375 -7.179)"/>
          <path id="Path_168" data-name="Path 168" d="M35.076,11.849a7.085,7.085,0,0,1,.874-3.411H6.336a3.328,3.328,0,0,0-2.111.746L20.952,26.208a5.843,5.843,0,0,0,8.336,0l8.581-8.731A7.053,7.053,0,0,1,35.076,11.849Z" transform="translate(-2.936 -8.438)"/>
        </g>
      </g>
    </g>
  </g>
</svg>
