<svg width="21" height="20" viewBox="0 0 21 20" fill="none" xmlns="http://www.w3.org/2000/svg">
<path fill-rule="evenodd" clip-rule="evenodd" d="M10.0877 1.90904C6.27499 1.90904 3.61753 4.89595 3.61753 7.57631C3.61753 9.84431 2.98808 10.8927 2.43171 11.8178C1.98553 12.5607 1.63317 13.1476 1.63317 14.4229C1.81535 16.4803 3.17353 17.5614 10.0877 17.5614C16.9637 17.5614 18.3644 16.4323 18.5455 14.3519C18.5423 13.1476 18.1899 12.5607 17.7437 11.8178C17.1873 10.8927 16.5579 9.84431 16.5579 7.57631C16.5579 4.89595 13.9004 1.90904 10.0877 1.90904ZM10.0877 19.1975C4.98656 19.1975 0.376378 18.8376 1.45687e-05 14.4925C-0.00325816 12.6946 0.545469 11.7805 1.02983 10.9754C1.51965 10.1594 1.98111 9.39028 1.98111 7.5761C1.98111 4.04919 5.23856 0.272461 10.0877 0.272461C14.9367 0.272461 18.1942 4.04919 18.1942 7.5761C18.1942 9.39028 18.6556 10.1594 19.1455 10.9754C19.6298 11.7805 20.1786 12.6946 20.1786 14.4226C19.7978 18.8375 15.1887 19.1975 10.0877 19.1975Z" fill="#130F26"/>
</svg>
