<svg width="47" height="52" viewBox="0 0 47 52" fill="none" xmlns="http://www.w3.org/2000/svg">
<g filter="url(#filter0_b)">
<path d="M34.1509 1.77246H13.5008C6.01054 1.77246 1.64941 6.15371 1.64941 13.6609V39.0869C1.64941 46.7172 6.01054 51 13.5008 51H34.1509C41.7619 51 45.9998 46.7172 45.9998 39.0869V13.6609C45.9998 6.15371 41.7619 1.77246 34.1509 1.77246Z" fill="#BA90FF" fill-opacity="0.35"/>
<path d="M34.1509 1.27246H13.5008C9.65862 1.27246 6.55507 2.39802 4.41209 4.54856C2.26935 6.69885 1.14941 9.81122 1.14941 13.6609V39.0869C1.14941 42.9962 2.2683 46.1162 4.41289 48.2586C6.55732 50.4008 9.66166 51.5 13.5008 51.5H34.1509C38.0485 51.5 41.1541 50.4018 43.2842 48.2572C45.4139 46.1131 46.4998 42.9924 46.4998 39.0869V13.6609C46.4998 9.81502 45.4128 6.70193 43.285 4.54994C41.1563 2.39703 38.0516 1.27246 34.1509 1.27246Z" stroke="url(#paint0_linear)" stroke-linecap="round" stroke-linejoin="round"/>
</g>
<defs>
<filter id="filter0_b" x="-23.3506" y="-23.2275" width="94.3506" height="99.2275" filterUnits="userSpaceOnUse" color-interpolation-filters="sRGB">
<feFlood flood-opacity="0" result="BackgroundImageFix"/>
<feGaussianBlur in="BackgroundImage" stdDeviation="12"/>
<feComposite in2="SourceAlpha" operator="in" result="effect1_backgroundBlur"/>
<feBlend mode="normal" in="SourceGraphic" in2="effect1_backgroundBlur" result="shape"/>
</filter>
<linearGradient id="paint0_linear" x1="8.70928" y1="7.50753" x2="40.6405" y2="43.137" gradientUnits="userSpaceOnUse">
<stop stop-color="white" stop-opacity="0.25"/>
<stop offset="1" stop-color="white" stop-opacity="0"/>
</linearGradient>
</defs>
</svg>
