<svg xmlns="http://www.w3.org/2000/svg" width="89.903" height="66.8" viewBox="0 0 89.903 66.8">
  <g id="noun_menu_500623" transform="translate(-49.4 -27.5)">
    <path id="Path_1" data-name="Path 1" d="M133.9,38.3H54.8a5.378,5.378,0,0,1-5.4-5.4h0a5.378,5.378,0,0,1,5.4-5.4h79.1a5.378,5.378,0,0,1,5.4,5.4h0A5.316,5.316,0,0,1,133.9,38.3Z" fill="#fff"/>
    <path id="Path_2" data-name="Path 2" d="M93.1,66.5H54.8a5.378,5.378,0,0,1-5.4-5.4h0a5.378,5.378,0,0,1,5.4-5.4H93.1a5.378,5.378,0,0,1,5.4,5.4h0A5.314,5.314,0,0,1,93.1,66.5Z" fill="#fff"/>
    <path id="Path_3" data-name="Path 3" d="M113.1,94.3H54.8a5.378,5.378,0,0,1-5.4-5.4h0a5.378,5.378,0,0,1,5.4-5.4H113a5.378,5.378,0,0,1,5.4,5.4h0A5.233,5.233,0,0,1,113.1,94.3Z" fill="#fff"/>
  </g>
</svg>
