<svg xmlns="http://www.w3.org/2000/svg" width="66" height="66" viewBox="0 0 66 66">
  <g id="Group_11641" data-name="Group 11641" transform="translate(-77.84 -556.5)">
    <g id="Group_11640" data-name="Group 11640">
      <g id="Ellipse_138" data-name="Ellipse 138" transform="translate(77.84 556.5)" fill="#fff9de" stroke="#ffd200" stroke-width="1">
        <circle cx="33" cy="33" r="33" stroke="none"/>
        <circle cx="33" cy="33" r="32.5" fill="none"/>
      </g>
      <path id="Icon_open-lightbulb" data-name="Icon open-lightbulb" d="M12.655-.006a1.865,1.865,0,0,0-.485.224L.983,5.812A1.865,1.865,0,1,0,2.623,9.093L13.811,3.5A1.865,1.865,0,0,0,12.655-.006Zm3.729,5.594a1.865,1.865,0,0,0-.485.224L.983,13.27a1.865,1.865,0,1,0,1.641,3.282L17.54,9.093a1.865,1.865,0,0,0-1.156-3.505Zm0,7.458a1.865,1.865,0,0,0-.485.224L4.712,18.864a1.865,1.865,0,0,0,.82,3.505h7.458a1.888,1.888,0,0,0,.6-3.729l3.953-2.088a1.865,1.865,0,0,0-1.156-3.505ZM6.837,26.1a1.888,1.888,0,1,0,.6,3.729h3.729a1.865,1.865,0,0,0,0-3.729H7.434a1.865,1.865,0,0,0-.336,0,1.864,1.864,0,0,0-.224,0Z" transform="translate(101.732 574.967)" fill="#ffd200"/>
    </g>
  </g>
</svg>
