<svg width="15" height="15" viewBox="0 0 15 15" fill="none" xmlns="http://www.w3.org/2000/svg">
<path d="M11.8587 1.60687C13.1519 2.5161 14.1183 3.80622 14.6186 5.29117C15.1189 6.77612 15.1272 8.37914 14.6423 9.86905C14.1575 11.3589 13.2045 12.6587 11.9208 13.5809C10.6371 14.5031 9.08908 15 7.5 15C5.91092 15 4.36291 14.5031 3.07923 13.5809C1.79555 12.6587 0.842545 11.3589 0.35767 9.86905C-0.127206 8.37914 -0.118893 6.77612 0.381409 5.29117C0.88171 3.80622 1.84814 2.5161 3.14132 1.60687C3.2243 1.54852 3.31881 1.50799 3.41872 1.4879C3.51863 1.46782 3.62171 1.46863 3.72128 1.49028C3.82086 1.51194 3.91469 1.55396 3.99671 1.61361C4.07873 1.67327 4.1471 1.74922 4.19739 1.83656L4.67742 2.67308C4.76389 2.82459 4.79131 3.00194 4.75455 3.17192C4.71779 3.3419 4.61938 3.49286 4.47773 3.59656C3.6188 4.22298 2.98243 5.10016 2.65917 6.10328C2.33591 7.10639 2.34224 8.18433 2.67725 9.1837C3.01226 10.1831 3.65888 11.0529 4.5251 11.6696C5.39132 12.2862 6.433 12.6181 7.50192 12.6181C8.57084 12.6181 9.61252 12.2862 10.4787 11.6696C11.345 11.0529 11.9916 10.1831 12.3266 9.1837C12.6616 8.18433 12.6679 7.10639 12.3447 6.10328C12.0214 5.10016 11.385 4.22298 10.5261 3.59656C10.386 3.49244 10.2893 3.34164 10.2539 3.17237C10.2186 3.00309 10.2471 2.82694 10.3341 2.67686L10.8141 1.84034C10.8638 1.75244 10.9319 1.67588 11.0137 1.61569C11.0956 1.55549 11.1895 1.51302 11.2892 1.49107C11.389 1.46911 11.4923 1.46816 11.5924 1.48828C11.6925 1.5084 11.7872 1.54914 11.8702 1.60782L11.8587 1.60687ZM8.71352 7.86139V0.714588C8.71377 0.620677 8.69517 0.527643 8.65878 0.440833C8.6224 0.354023 8.56895 0.275149 8.5015 0.208744C8.43405 0.142338 8.35394 0.089712 8.26576 0.0538891C8.17759 0.0180661 8.0831 -0.000246918 7.98771 2.51411e-06H7.01997C6.92458 -0.000246918 6.83009 0.0180661 6.74192 0.0538891C6.65374 0.089712 6.57363 0.142338 6.50618 0.208744C6.43873 0.275149 6.38528 0.354023 6.3489 0.440833C6.31251 0.527643 6.29391 0.620677 6.29416 0.714588V7.86139C6.29391 7.9553 6.31251 8.04833 6.3489 8.13514C6.38528 8.22195 6.43873 8.30083 6.50618 8.36723C6.57363 8.43364 6.65374 8.48626 6.74192 8.52209C6.83009 8.55791 6.92458 8.57622 7.01997 8.57597H7.98771C8.0831 8.57622 8.17759 8.55791 8.26576 8.52209C8.35394 8.48626 8.43405 8.43364 8.5015 8.36723C8.56895 8.30083 8.6224 8.22195 8.65878 8.13514C8.69517 8.04833 8.71377 7.9553 8.71352 7.86139Z" fill="white"/>
</svg>
