<svg xmlns="http://www.w3.org/2000/svg" width="15.626" height="15.878" viewBox="0 0 15.626 15.878">
  <path id="Icon_awesome-power-off" data-name="Icon awesome-power-off" d="M12.912,1.7a7.812,7.812,0,1,1-9.08,0,.758.758,0,0,1,1.1.243l.5.885a.756.756,0,0,1-.208.977,5.292,5.292,0,1,0,6.3,0,.752.752,0,0,1-.2-.973l.5-.885a.755.755,0,0,1,1.1-.246ZM9.636,8.317V.756A.754.754,0,0,0,8.88,0H7.872a.754.754,0,0,0-.756.756V8.317a.754.754,0,0,0,.756.756H8.88A.754.754,0,0,0,9.636,8.317Z" transform="translate(-0.562)"/>
</svg>
