<svg xmlns="http://www.w3.org/2000/svg" width="17.919" height="13.095" viewBox="0 0 17.919 13.095">
  <g id="Icon_ionic-ios-mail-unread" data-name="Icon ionic-ios-mail-unread" transform="translate(-3.375 -7.312)">
    <path id="Path_166" data-name="Path 166" d="M30.01,9.38a2.068,2.068,0,1,1-2.068-2.068A2.068,2.068,0,0,1,30.01,9.38Z" transform="translate(-8.716 0)" fill="#838595"/>
    <g id="Group_49" data-name="Group 49" transform="translate(3.375 8.002)">
      <path id="Path_167" data-name="Path 167" d="M19.226,13.625a2.87,2.87,0,0,1-.672-.082l-2.042,2.08a.083.083,0,0,0,0,.121L19.756,19.2a.559.559,0,0,1,0,.793.562.562,0,0,1-.793,0L15.733,16.55a.088.088,0,0,0-.125,0l-.788.8a3.468,3.468,0,0,1-2.472,1.042,3.538,3.538,0,0,1-2.524-1.073l-.758-.771a.088.088,0,0,0-.125,0L5.71,19.991a.562.562,0,0,1-.793,0,.559.559,0,0,1,0-.793l3.243-3.455a.092.092,0,0,0,0-.121L3.521,10.9a.085.085,0,0,0-.146.06v9.446a1.382,1.382,0,0,0,1.378,1.378H19.915a1.382,1.382,0,0,0,1.378-1.378V12.742A2.858,2.858,0,0,1,19.226,13.625Z" transform="translate(-3.375 -9.382)" fill="#838595"/>
      <path id="Path_168" data-name="Path 168" d="M16.691,9.816a2.863,2.863,0,0,1,.353-1.378H5.079a1.345,1.345,0,0,0-.853.3l6.758,6.879a2.361,2.361,0,0,0,3.368,0L17.82,12.09A2.85,2.85,0,0,1,16.691,9.816Z" transform="translate(-3.705 -8.438)" fill="#838595"/>
    </g>
  </g>
</svg>
