<svg width="15" height="14" viewBox="0 0 15 14" fill="none" xmlns="http://www.w3.org/2000/svg">
<path fill-rule="evenodd" clip-rule="evenodd" d="M7.85213 8.47698C7.40613 8.47698 6.96147 8.32965 6.58947 8.03498L3.59947 5.62432C3.38413 5.45098 3.3508 5.13565 3.52347 4.92098C3.69747 4.70698 4.01213 4.67298 4.2268 4.84565L7.21413 7.25365C7.58947 7.55098 8.11813 7.55098 8.49613 7.25098L11.4535 4.84698C11.6681 4.67165 11.9828 4.70498 12.1575 4.91965C12.3315 5.13365 12.2988 5.44832 12.0848 5.62298L9.12213 8.03098C8.74747 8.32832 8.29947 8.47698 7.85213 8.47698Z" fill="white"/>
<mask id="mask0_1038:6579" style="mask-type:alpha" maskUnits="userSpaceOnUse" x="0" y="0" width="15" height="14">
<path fill-rule="evenodd" clip-rule="evenodd" d="M0.666992 0.833984H15.0003V13.834H0.666992V0.833984Z" fill="white"/>
</mask>
<g mask="url(#mask0_1038:6579)">
<path fill-rule="evenodd" clip-rule="evenodd" d="M4.55966 12.834H11.1063C11.1077 12.8327 11.113 12.834 11.117 12.834C11.8777 12.834 12.5523 12.562 13.0697 12.0453C13.6703 11.4473 14.0003 10.588 14.0003 9.62598V5.04732C14.0003 3.18532 12.783 1.83398 11.1063 1.83398H4.56099C2.88433 1.83398 1.66699 3.18532 1.66699 5.04732V9.62598C1.66699 10.588 1.99766 11.4473 2.59766 12.0453C3.11499 12.562 3.79033 12.834 4.55033 12.834H4.55966ZM4.54833 13.834C3.51966 13.834 2.60099 13.4607 1.89166 12.754C1.10166 11.966 0.666992 10.8553 0.666992 9.62598V5.04732C0.666992 2.64532 2.34099 0.833984 4.56099 0.833984H11.1063C13.3263 0.833984 15.0003 2.64532 15.0003 5.04732V9.62598C15.0003 10.8553 14.5657 11.966 13.7757 12.754C13.067 13.46 12.1477 13.834 11.117 13.834H11.1063H4.56099H4.54833Z" fill="white"/>
</g>
</svg>
