<svg id="Group_11568" data-name="Group 11568" xmlns="http://www.w3.org/2000/svg" width="18.975" height="19.127" viewBox="0 0 18.975 19.127">
  <path id="Icon_simple-khanacademy" data-name="Icon simple-khanacademy" d="M.616,13.411S-1.6,8.116,2.372,4.168C5.973.58,11.413.025,12.357,0c0,0,1.46,4.794-2.186,10.229s-8.7,3.961-8.7,3.961S6.467,7.826,5.866,7.865c-.42.025-3.04,2.908-5.251,5.547" transform="translate(0 7.958) rotate(-39)"/>
  <path id="Icon_simple-khanacademy-2" data-name="Icon simple-khanacademy" d="M.225,4.893A3.22,3.22,0,0,1,.865,1.521,6.024,6.024,0,0,1,4.509,0a4.677,4.677,0,0,1-.8,3.732A2.95,2.95,0,0,1,.538,5.177,15.3,15.3,0,0,0,2.14,2.87,12.982,12.982,0,0,0,.224,4.894" transform="matrix(0.087, -0.996, 0.996, 0.087, 0, 17.657)"/>
  <path id="Icon_simple-khanacademy-3" data-name="Icon simple-khanacademy" d="M.225.351A3.22,3.22,0,0,0,.865,3.723,6.025,6.025,0,0,0,4.509,5.244a4.677,4.677,0,0,0-.8-3.732A2.95,2.95,0,0,0,.538.066a15.3,15.3,0,0,1,1.6,2.308A12.981,12.981,0,0,1,.224.35" transform="matrix(-0.087, -0.996, 0.996, -0.087, 13.751, 18.114)"/>
</svg>
