<svg width="21" height="24" viewBox="0 0 21 24" fill="none" xmlns="http://www.w3.org/2000/svg">
<mask id="mask0" style="mask-type:alpha" maskUnits="userSpaceOnUse" x="0" y="0" width="21" height="20">
<path fill-rule="evenodd" clip-rule="evenodd" d="M0 0.272461H20.1785V19.1975H0V0.272461Z" fill="white"/>
</mask>
<g mask="url(#mask0)">
<path fill-rule="evenodd" clip-rule="evenodd" d="M10.0877 1.90904C6.27499 1.90904 3.61753 4.89595 3.61753 7.57631C3.61753 9.84431 2.98808 10.8927 2.43171 11.8178C1.98553 12.5607 1.63317 13.1476 1.63317 14.4229C1.81535 16.4803 3.17353 17.5614 10.0877 17.5614C16.9637 17.5614 18.3644 16.4323 18.5455 14.3519C18.5423 13.1476 18.1899 12.5607 17.7437 11.8178C17.1873 10.8927 16.5579 9.84431 16.5579 7.57631C16.5579 4.89595 13.9004 1.90904 10.0877 1.90904ZM10.0877 19.1975C4.98656 19.1975 0.376378 18.8376 1.45687e-05 14.4925C-0.00325816 12.6946 0.545469 11.7805 1.02983 10.9754C1.51965 10.1594 1.98111 9.39028 1.98111 7.5761C1.98111 4.04919 5.23856 0.272461 10.0877 0.272461C14.9367 0.272461 18.1942 4.04919 18.1942 7.5761C18.1942 9.39028 18.6556 10.1594 19.1455 10.9754C19.6298 11.7805 20.1786 12.6946 20.1786 14.4226C19.7978 18.8375 15.1887 19.1975 10.0877 19.1975Z" fill="#130F26"/>
</g>
<path fill-rule="evenodd" clip-rule="evenodd" d="M10.0341 23.7272H10.0319C8.80903 23.7261 7.65158 23.1872 6.7734 22.2087C6.47121 21.8738 6.49849 21.3556 6.83449 21.0545C7.17049 20.7512 7.68758 20.7785 7.98976 21.1156C8.55485 21.745 9.2803 22.0908 10.033 22.0908H10.0341C10.7901 22.0908 11.5188 21.745 12.085 21.1145C12.3883 20.7796 12.9054 20.7523 13.2403 21.0545C13.5763 21.3567 13.6036 21.8748 13.3014 22.2098C12.4199 23.1883 11.2603 23.7272 10.0341 23.7272Z" fill="#130F26"/>
</svg>
