<svg xmlns="http://www.w3.org/2000/svg" width="36" height="36" viewBox="0 0 36 36">
  <g id="Group_11643" data-name="Group 11643" transform="translate(-43.42 -476)">
    <path id="Path_12990" data-name="Path 12990" d="M18,0A18,18,0,1,1,0,18,18,18,0,0,1,18,0Z" transform="translate(43.42 476)" fill="#bcbecc" opacity="0.14"/>
    <path id="Path_12989" data-name="Path 12989" d="M10,0A10,10,0,0,1,20,10c0,2.182-2.07,6.093-2.07,6.093S13.341,20,10,20A10,10,0,0,1,10,0Z" transform="translate(51.42 484)" fill="#bcbecc"/>
    <path id="_Icon_Color" data-name="🔹 Icon Color" d="M9.756,3.933H2.486L5.464.924,4.543,0,0,4.589,4.543,9.178l.915-.924L2.486,5.244H9.756Z" transform="translate(56.833 498.515) rotate(-90)" fill="#fff"/>
  </g>
</svg>
