<svg width="80" height="93" viewBox="0 0 80 93" fill="none" xmlns="http://www.w3.org/2000/svg">
<g filter="url(#filter0_i)">
<path fill-rule="evenodd" clip-rule="evenodd" d="M79.4739 0.525475C79.6541 0.705585 79.7726 0.938006 79.8128 1.18954C80.3096 7.06431 79.803 12.9808 78.3145 18.6856L61.4709 1.66077C67.1248 0.187756 72.9885 -0.310754 78.8099 0.18666C79.0614 0.226781 79.2938 0.345366 79.4739 0.525475ZM36.5203 17.9605L20.2084 44.0354C20.0625 44.2673 19.9998 44.5419 20.0306 44.8142C20.0613 45.0864 20.1837 45.3401 20.3775 45.5337L34.4662 59.6223C34.5781 59.7365 34.7115 59.8273 34.8588 59.8895C35.0061 59.9518 35.1642 59.9842 35.3241 59.9848C35.5521 59.9861 35.7752 59.9188 35.9645 59.7915L62.1239 43.4071C69.4981 37.8856 74.92 30.157 77.6021 21.3438L58.8132 2.39779C49.9121 5.07405 42.1005 10.5274 36.5203 17.9605Z" fill="url(#paint0_linear)"/>
</g>
<g filter="url(#filter1_bdiii)">
<path d="M-nan -nanL22.5776 55.5628L16.5361 61.6042C16.4229 61.7166 16.333 61.8502 16.2716 61.9974C16.2103 62.1447 16.1787 62.3026 16.1787 62.4621C16.1787 62.6216 16.2103 62.7796 16.2716 62.9268C16.333 63.074 16.4229 63.2077 16.5361 63.32C16.649 63.432 16.7829 63.5206 16.9301 63.5807C17.0774 63.6408 17.235 63.6713 17.394 63.6704C17.711 63.6691 18.0148 63.5432 18.2398 63.32L24.2812 57.2786C24.3945 57.1662 24.4844 57.0326 24.5457 56.8854C24.6071 56.7381 24.6387 56.5802 24.6387 56.4207C24.6387 56.2612 24.6071 56.1032 24.5457 55.956C24.4844 55.8088 24.3945 55.6751 24.2812 55.5628C24.0549 55.3377 23.7486 55.2114 23.4294 55.2114C23.1102 55.2114 22.8039 55.3377 22.5776 55.5628L-nan -nanZ" fill="url(#paint1_linear)" fill-opacity="0.21"/>
<path d="M-nan -nanL22.5776 55.5628L16.5361 61.6042C16.4229 61.7166 16.333 61.8502 16.2716 61.9974C16.2103 62.1447 16.1787 62.3026 16.1787 62.4621C16.1787 62.6216 16.2103 62.7796 16.2716 62.9268C16.333 63.074 16.4229 63.2077 16.5361 63.32C16.649 63.432 16.7829 63.5206 16.9301 63.5807C17.0774 63.6408 17.235 63.6713 17.394 63.6704C17.711 63.6691 18.0148 63.5432 18.2398 63.32L24.2812 57.2786C24.3945 57.1662 24.4844 57.0326 24.5457 56.8854C24.6071 56.7381 24.6387 56.5802 24.6387 56.4207C24.6387 56.2612 24.6071 56.1032 24.5457 55.956C24.4844 55.8088 24.3945 55.6751 24.2812 55.5628C24.0549 55.3377 23.7486 55.2114 23.4294 55.2114C23.1102 55.2114 22.8039 55.3377 22.5776 55.5628L-nan -nanZ" fill="#5AC85F"/>
</g>
<g filter="url(#filter2_bdii)">
<path fill-rule="evenodd" clip-rule="evenodd" d="M25.8596 41.4746C25.8689 41.4653 25.8703 41.4507 25.863 41.4398C25.8562 41.4295 25.857 41.4158 25.8652 41.4066C25.971 41.2873 26.0993 41.1901 26.243 41.1206C26.3929 41.0481 26.5561 41.0073 26.7225 41.0009C26.889 40.9945 27.0549 41.0225 27.2099 41.0833C27.365 41.144 27.5058 41.2361 27.6236 41.3539C27.7413 41.4717 27.8335 41.6125 27.8942 41.7675C27.955 41.9226 27.983 42.0885 27.9766 42.2549C27.9701 42.4213 27.9294 42.5846 27.8569 42.7345C27.7843 42.8844 27.6816 43.0177 27.5551 43.126L24.8606 45.8205C24.6465 46.0587 24.3467 46.2021 24.0269 46.2193C23.788 46.2183 23.5546 46.1464 23.3565 46.0128C23.1584 45.8792 23.0043 45.6899 22.9138 45.4687C22.8232 45.2476 22.8003 45.0045 22.8479 44.7704C22.8955 44.5362 23.0114 44.3214 23.1811 44.1531L25.8596 41.4746ZM12.9221 65.5759L21.2352 57.2267C21.4627 56.9943 21.7732 56.8619 22.0983 56.8585C22.4235 56.8551 22.7367 56.981 22.969 57.2085C23.2014 57.4361 23.3338 57.7466 23.3372 58.0717C23.3406 58.3969 23.2147 58.7101 22.9872 58.9424L14.6258 67.2917C14.3983 67.5176 14.0903 67.6439 13.7697 67.6428C13.4491 67.6416 13.142 67.5132 12.9161 67.2857C12.6902 67.0581 12.5639 66.7502 12.565 66.4295C12.5661 66.1089 12.6946 65.8018 12.9221 65.5759ZM30.7706 48.4997C30.7779 48.5107 30.7765 48.5253 30.7672 48.5346L28.0887 51.213C27.9191 51.3813 27.8031 51.5961 27.7555 51.8303C27.7079 52.0645 27.7308 52.3075 27.8214 52.5287C27.9119 52.7498 28.066 52.9392 28.2641 53.0728C28.4623 53.2064 28.6956 53.2782 28.9345 53.2792C29.2543 53.262 29.5542 53.1186 29.7682 52.8805L32.4627 50.186C32.5892 50.0777 32.6919 49.9444 32.7645 49.7945C32.837 49.6446 32.8777 49.4813 32.8842 49.3149C32.8906 49.1485 32.8626 48.9825 32.8018 48.8275C32.7411 48.6724 32.6489 48.5316 32.5312 48.4138C32.4134 48.2961 32.2726 48.204 32.1175 48.1432C31.9625 48.0825 31.7966 48.0544 31.6301 48.0608C31.4637 48.0673 31.3005 48.108 31.1506 48.1806C31.0069 48.25 30.8786 48.3473 30.7728 48.4665C30.7646 48.4758 30.7638 48.4894 30.7706 48.4997ZM37.1694 52.7839C37.1783 52.7748 37.1924 52.7733 37.203 52.7804C37.2135 52.7873 37.2274 52.786 37.2365 52.7772C37.4624 52.5608 37.7637 52.4402 38.0771 52.4413C38.3977 52.4424 38.7048 52.5709 38.9307 52.7984C39.1566 53.0259 39.2829 53.3339 39.2818 53.6545C39.2807 53.9751 39.1522 54.2822 38.9247 54.5081L36.2302 57.2026C36.0051 57.4258 35.7014 57.5517 35.3844 57.553C35.2254 57.5539 35.0677 57.5234 34.9205 57.4633C34.7733 57.4032 34.6394 57.3146 34.5265 57.2026C34.4133 57.0903 34.3234 56.9566 34.262 56.8094C34.2007 56.6622 34.1691 56.5042 34.1691 56.3447C34.1691 56.1852 34.2007 56.0273 34.262 55.88C34.3234 55.7328 34.4133 55.5992 34.5265 55.4868L37.1694 52.7839ZM29.2705 60.6945L24.3045 65.6485C24.1912 65.7608 24.1013 65.8945 24.04 66.0417C23.9786 66.1889 23.9471 66.3469 23.9471 66.5064C23.9471 66.6659 23.9786 66.8238 24.04 66.9711C24.1013 67.1183 24.1912 67.2519 24.3045 67.3643C24.4174 67.4763 24.5513 67.5649 24.6985 67.625C24.8457 67.6851 25.0033 67.7156 25.1624 67.7147C25.3214 67.7156 25.479 67.6851 25.6262 67.625C25.7734 67.5649 25.9073 67.4763 26.0202 67.3643L30.9742 62.3982C31.1722 62.1671 31.2756 61.8697 31.2639 61.5656C31.2521 61.2615 31.126 60.9731 30.9109 60.7579C30.6957 60.5427 30.4072 60.4166 30.1031 60.4049C29.799 60.3931 29.5017 60.4966 29.2705 60.6945ZM11.3574 55.434L16.3235 50.48C16.5546 50.2821 16.852 50.1787 17.1561 50.1904C17.4601 50.2021 17.7486 50.3282 17.9638 50.5434C18.179 50.7586 18.3051 51.0471 18.3168 51.3512C18.3285 51.6552 18.2251 51.9526 18.0272 52.1837L13.0732 57.1498C12.9603 57.2618 12.8264 57.3504 12.6792 57.4105C12.5319 57.4706 12.3743 57.5011 12.2153 57.5002C12.0563 57.5011 11.8986 57.4706 11.7514 57.4105C11.6042 57.3504 11.4703 57.2618 11.3574 57.1498C11.2442 57.0375 11.1543 56.9038 11.0929 56.7566C11.0316 56.6093 11 56.4514 11 56.2919C11 56.1324 11.0316 55.9745 11.0929 55.8272C11.1543 55.68 11.2442 55.5464 11.3574 55.434Z" fill="url(#paint2_linear)" fill-opacity="0.1"/>
</g>
<g filter="url(#filter3_bdiii)">
<path d="M-nan -nanL22.578 55.5628L16.5366 61.6042C16.4234 61.7166 16.3335 61.8502 16.2721 61.9974C16.2108 62.1447 16.1792 62.3026 16.1792 62.4621C16.1792 62.6216 16.2108 62.7796 16.2721 62.9268C16.3335 63.074 16.4234 63.2077 16.5366 63.32C16.6495 63.432 16.7834 63.5206 16.9306 63.5807C17.0778 63.6408 17.2355 63.6713 17.3945 63.6704C17.7115 63.6691 18.0152 63.5432 18.2403 63.32L24.2817 57.2786C24.395 57.1662 24.4849 57.0326 24.5462 56.8854C24.6076 56.7381 24.6391 56.5802 24.6391 56.4207C24.6391 56.2612 24.6076 56.1032 24.5462 55.956C24.4849 55.8088 24.395 55.6751 24.2817 55.5628C24.0553 55.3377 23.7491 55.2114 23.4299 55.2114C23.1107 55.2114 22.8044 55.3377 22.578 55.5628L-nan -nanZ" fill="url(#paint3_linear)" fill-opacity="0.21"/>
<path d="M-nan -nanL22.578 55.5628L16.5366 61.6042C16.4234 61.7166 16.3335 61.8502 16.2721 61.9974C16.2108 62.1447 16.1792 62.3026 16.1792 62.4621C16.1792 62.6216 16.2108 62.7796 16.2721 62.9268C16.3335 63.074 16.4234 63.2077 16.5366 63.32C16.6495 63.432 16.7834 63.5206 16.9306 63.5807C17.0778 63.6408 17.2355 63.6713 17.3945 63.6704C17.7115 63.6691 18.0152 63.5432 18.2403 63.32L24.2817 57.2786C24.395 57.1662 24.4849 57.0326 24.5462 56.8854C24.6076 56.7381 24.6391 56.5802 24.6391 56.4207C24.6391 56.2612 24.6076 56.1032 24.5462 55.956C24.4849 55.8088 24.395 55.6751 24.2817 55.5628C24.0553 55.3377 23.7491 55.2114 23.4299 55.2114C23.1107 55.2114 22.8044 55.3377 22.578 55.5628L-nan -nanZ" fill="#5AC85F"/>
</g>
<g filter="url(#filter4_i)">
<path fill-rule="evenodd" clip-rule="evenodd" d="M79.4759 0.525475C79.656 0.705585 79.7746 0.938006 79.8147 1.18954C80.3116 7.06431 79.8049 12.9808 78.3164 18.6856L61.4729 1.66077C67.1268 0.187756 72.9904 -0.310754 78.8118 0.18666C79.0634 0.226781 79.2958 0.345366 79.4759 0.525475ZM36.5222 17.9605L20.2103 44.0354C20.0645 44.2673 20.0018 44.5419 20.0325 44.8142C20.0633 45.0864 20.1856 45.3401 20.3795 45.5337L34.4681 59.6223C34.58 59.7365 34.7135 59.8273 34.8607 59.8895C35.008 59.9518 35.1662 59.9842 35.326 59.9848C35.554 59.9861 35.7772 59.9188 35.9664 59.7915L62.1258 43.4071C69.5001 37.8856 74.922 30.157 77.604 21.3438L58.8151 2.39779C49.9141 5.07405 42.1025 10.5274 36.5222 17.9605Z" fill="url(#paint4_linear)"/>
</g>
<g filter="url(#filter5_biii)">
<path d="M42.6082 54.0041C41.0575 55.2831 40.4717 57.361 40.7794 59.3474C41.5796 64.514 40.6935 69.8345 38.2027 74.4982C38.0573 74.7342 37.9975 75.013 38.0333 75.2879C38.0691 75.5628 38.1983 75.817 38.3993 76.0079C38.528 76.1271 38.6812 76.2168 38.8482 76.2708C39.0151 76.3249 39.1918 76.3419 39.366 76.3207C39.5669 76.2955 39.7582 76.2204 39.9224 76.102C46.2752 71.5459 58.7495 61.0161 59.8611 47.9985C60.1693 44.3887 55.997 42.9602 53.2022 45.2655L42.6082 54.0041Z" fill="url(#paint5_linear)" fill-opacity="0.09"/>
<path d="M42.6082 54.0041C41.0575 55.2831 40.4717 57.361 40.7794 59.3474C41.5796 64.514 40.6935 69.8345 38.2027 74.4982C38.0573 74.7342 37.9975 75.013 38.0333 75.2879C38.0691 75.5628 38.1983 75.817 38.3993 76.0079C38.528 76.1271 38.6812 76.2168 38.8482 76.2708C39.0151 76.3249 39.1918 76.3419 39.366 76.3207C39.5669 76.2955 39.7582 76.2204 39.9224 76.102C46.2752 71.5459 58.7495 61.0161 59.8611 47.9985C60.1693 44.3887 55.997 42.9602 53.2022 45.2655L42.6082 54.0041Z" fill="#506943" fill-opacity="0.05"/>
</g>
<g filter="url(#filter6_biii)">
<path d="M26.5659 38.6743C25.2515 40.1951 23.1607 40.733 21.182 40.3797C16.0351 39.4609 10.6957 40.2242 5.97585 42.6071C5.73656 42.747 5.45644 42.8004 5.18247 42.7583C4.90849 42.7162 4.65732 42.5812 4.47108 42.3759C4.35486 42.2444 4.26867 42.0892 4.21851 41.921C4.16835 41.7529 4.15542 41.5758 4.18061 41.4022C4.21036 41.2019 4.28992 41.0124 4.41201 40.8509C9.11308 34.6047 19.9271 22.376 32.9669 21.5641C36.5828 21.339 37.9149 25.5432 35.5459 28.2842L26.5659 38.6743Z" fill="url(#paint6_linear)" fill-opacity="0.09"/>
<path d="M26.5659 38.6743C25.2515 40.1951 23.1607 40.733 21.182 40.3797C16.0351 39.4609 10.6957 40.2242 5.97585 42.6071C5.73656 42.747 5.45644 42.8004 5.18247 42.7583C4.90849 42.7162 4.65732 42.5812 4.47108 42.3759C4.35486 42.2444 4.26867 42.0892 4.21851 41.921C4.16835 41.7529 4.15542 41.5758 4.18061 41.4022C4.21036 41.2019 4.28992 41.0124 4.41201 40.8509C9.11308 34.6047 19.9271 22.376 32.9669 21.5641C36.5828 21.339 37.9149 25.5432 35.5459 28.2842L26.5659 38.6743Z" fill="#506943" fill-opacity="0.05"/>
</g>
<g filter="url(#filter7_bdii)">
<circle cx="57.5" cy="21.5" r="7.5" fill="url(#paint7_linear)" fill-opacity="0.21"/>
<circle cx="57.5" cy="21.5" r="7.5" fill="white"/>
</g>
<defs>
<filter id="filter0_i" x="20.0229" y="-3" width="68.9746" height="62.9849" filterUnits="userSpaceOnUse" color-interpolation-filters="sRGB">
<feFlood flood-opacity="0" result="BackgroundImageFix"/>
<feBlend mode="normal" in="SourceGraphic" in2="BackgroundImageFix" result="shape"/>
<feColorMatrix in="SourceAlpha" type="matrix" values="0 0 0 0 0 0 0 0 0 0 0 0 0 0 0 0 0 0 127 0" result="hardAlpha"/>
<feOffset dx="9" dy="-3"/>
<feGaussianBlur stdDeviation="10"/>
<feComposite in2="hardAlpha" operator="arithmetic" k2="-1" k3="1"/>
<feColorMatrix type="matrix" values="0 0 0 0 0 0 0 0 0 0 0 0 0 0 0 0 0 0 0.17 0"/>
<feBlend mode="normal" in2="shape" result="effect1_innerShadow"/>
</filter>
<filter id="filter1_bdiii" x="-3.82129" y="35.2114" width="57.46" height="53.459" filterUnits="userSpaceOnUse" color-interpolation-filters="sRGB">
<feFlood flood-opacity="0" result="BackgroundImageFix"/>
<feGaussianBlur in="BackgroundImage" stdDeviation="10"/>
<feComposite in2="SourceAlpha" operator="in" result="effect1_backgroundBlur"/>
<feColorMatrix in="SourceAlpha" type="matrix" values="0 0 0 0 0 0 0 0 0 0 0 0 0 0 0 0 0 0 127 0" result="hardAlpha"/>
<feOffset dx="9" dy="5"/>
<feGaussianBlur stdDeviation="10"/>
<feColorMatrix type="matrix" values="0 0 0 0 0.0690278 0 0 0 0 0.295833 0 0 0 0 0.11166 0 0 0 0.08 0"/>
<feBlend mode="normal" in2="effect1_backgroundBlur" result="effect2_dropShadow"/>
<feBlend mode="normal" in="SourceGraphic" in2="effect2_dropShadow" result="shape"/>
<feColorMatrix in="SourceAlpha" type="matrix" values="0 0 0 0 0 0 0 0 0 0 0 0 0 0 0 0 0 0 127 0" result="hardAlpha"/>
<feOffset dx="-10" dy="10"/>
<feGaussianBlur stdDeviation="5"/>
<feComposite in2="hardAlpha" operator="arithmetic" k2="-1" k3="1"/>
<feColorMatrix type="matrix" values="0 0 0 0 1 0 0 0 0 1 0 0 0 0 1 0 0 0 0.15 0"/>
<feBlend mode="normal" in2="shape" result="effect3_innerShadow"/>
<feColorMatrix in="SourceAlpha" type="matrix" values="0 0 0 0 0 0 0 0 0 0 0 0 0 0 0 0 0 0 127 0" result="hardAlpha"/>
<feOffset dy="-10"/>
<feGaussianBlur stdDeviation="5"/>
<feComposite in2="hardAlpha" operator="arithmetic" k2="-1" k3="1"/>
<feColorMatrix type="matrix" values="0 0 0 0 0.156863 0 0 0 0 0.67451 0 0 0 0 0.25098 0 0 0 0.3 0"/>
<feBlend mode="normal" in2="effect3_innerShadow" result="effect4_innerShadow"/>
<feColorMatrix in="SourceAlpha" type="matrix" values="0 0 0 0 0 0 0 0 0 0 0 0 0 0 0 0 0 0 127 0" result="hardAlpha"/>
<feOffset dx="-3" dy="6"/>
<feGaussianBlur stdDeviation="7.5"/>
<feComposite in2="hardAlpha" operator="arithmetic" k2="-1" k3="1"/>
<feColorMatrix type="matrix" values="0 0 0 0 0.0770313 0 0 0 0 0.6375 0 0 0 0 0.178935 0 0 0 0.09 0"/>
<feBlend mode="normal" in2="effect4_innerShadow" result="effect5_innerShadow"/>
</filter>
<filter id="filter2_bdii" x="-9" y="21" width="77.2817" height="71.7148" filterUnits="userSpaceOnUse" color-interpolation-filters="sRGB">
<feFlood flood-opacity="0" result="BackgroundImageFix"/>
<feGaussianBlur in="BackgroundImage" stdDeviation="10"/>
<feComposite in2="SourceAlpha" operator="in" result="effect1_backgroundBlur"/>
<feColorMatrix in="SourceAlpha" type="matrix" values="0 0 0 0 0 0 0 0 0 0 0 0 0 0 0 0 0 0 127 0" result="hardAlpha"/>
<feOffset dx="9" dy="5"/>
<feGaussianBlur stdDeviation="10"/>
<feColorMatrix type="matrix" values="0 0 0 0 0.0690278 0 0 0 0 0.295833 0 0 0 0 0.11166 0 0 0 0.08 0"/>
<feBlend mode="normal" in2="effect1_backgroundBlur" result="effect2_dropShadow"/>
<feBlend mode="normal" in="SourceGraphic" in2="effect2_dropShadow" result="shape"/>
<feColorMatrix in="SourceAlpha" type="matrix" values="0 0 0 0 0 0 0 0 0 0 0 0 0 0 0 0 0 0 127 0" result="hardAlpha"/>
<feOffset/>
<feGaussianBlur stdDeviation="5"/>
<feComposite in2="hardAlpha" operator="arithmetic" k2="-1" k3="1"/>
<feColorMatrix type="matrix" values="0 0 0 0 0.156863 0 0 0 0 0.67451 0 0 0 0 0.25098 0 0 0 0.2 0"/>
<feBlend mode="normal" in2="shape" result="effect3_innerShadow"/>
<feColorMatrix in="SourceAlpha" type="matrix" values="0 0 0 0 0 0 0 0 0 0 0 0 0 0 0 0 0 0 127 0" result="hardAlpha"/>
<feOffset dx="-3" dy="6"/>
<feGaussianBlur stdDeviation="7.5"/>
<feComposite in2="hardAlpha" operator="arithmetic" k2="-1" k3="1"/>
<feColorMatrix type="matrix" values="0 0 0 0 0.0770313 0 0 0 0 0.6375 0 0 0 0 0.178935 0 0 0 0.09 0"/>
<feBlend mode="normal" in2="effect3_innerShadow" result="effect4_innerShadow"/>
</filter>
<filter id="filter3_bdiii" x="-3.8208" y="35.2114" width="57.46" height="53.459" filterUnits="userSpaceOnUse" color-interpolation-filters="sRGB">
<feFlood flood-opacity="0" result="BackgroundImageFix"/>
<feGaussianBlur in="BackgroundImage" stdDeviation="10"/>
<feComposite in2="SourceAlpha" operator="in" result="effect1_backgroundBlur"/>
<feColorMatrix in="SourceAlpha" type="matrix" values="0 0 0 0 0 0 0 0 0 0 0 0 0 0 0 0 0 0 127 0" result="hardAlpha"/>
<feOffset dx="9" dy="5"/>
<feGaussianBlur stdDeviation="10"/>
<feColorMatrix type="matrix" values="0 0 0 0 0.0690278 0 0 0 0 0.295833 0 0 0 0 0.11166 0 0 0 0.08 0"/>
<feBlend mode="normal" in2="effect1_backgroundBlur" result="effect2_dropShadow"/>
<feBlend mode="normal" in="SourceGraphic" in2="effect2_dropShadow" result="shape"/>
<feColorMatrix in="SourceAlpha" type="matrix" values="0 0 0 0 0 0 0 0 0 0 0 0 0 0 0 0 0 0 127 0" result="hardAlpha"/>
<feOffset dx="-10" dy="10"/>
<feGaussianBlur stdDeviation="5"/>
<feComposite in2="hardAlpha" operator="arithmetic" k2="-1" k3="1"/>
<feColorMatrix type="matrix" values="0 0 0 0 1 0 0 0 0 1 0 0 0 0 1 0 0 0 0.15 0"/>
<feBlend mode="normal" in2="shape" result="effect3_innerShadow"/>
<feColorMatrix in="SourceAlpha" type="matrix" values="0 0 0 0 0 0 0 0 0 0 0 0 0 0 0 0 0 0 127 0" result="hardAlpha"/>
<feOffset dy="-10"/>
<feGaussianBlur stdDeviation="5"/>
<feComposite in2="hardAlpha" operator="arithmetic" k2="-1" k3="1"/>
<feColorMatrix type="matrix" values="0 0 0 0 0.156863 0 0 0 0 0.67451 0 0 0 0 0.25098 0 0 0 0.3 0"/>
<feBlend mode="normal" in2="effect3_innerShadow" result="effect4_innerShadow"/>
<feColorMatrix in="SourceAlpha" type="matrix" values="0 0 0 0 0 0 0 0 0 0 0 0 0 0 0 0 0 0 127 0" result="hardAlpha"/>
<feOffset dx="-3" dy="6"/>
<feGaussianBlur stdDeviation="7.5"/>
<feComposite in2="hardAlpha" operator="arithmetic" k2="-1" k3="1"/>
<feColorMatrix type="matrix" values="0 0 0 0 0.0770313 0 0 0 0 0.6375 0 0 0 0 0.178935 0 0 0 0.09 0"/>
<feBlend mode="normal" in2="effect4_innerShadow" result="effect5_innerShadow"/>
</filter>
<filter id="filter4_i" x="20.0249" y="-3" width="68.9746" height="62.9849" filterUnits="userSpaceOnUse" color-interpolation-filters="sRGB">
<feFlood flood-opacity="0" result="BackgroundImageFix"/>
<feBlend mode="normal" in="SourceGraphic" in2="BackgroundImageFix" result="shape"/>
<feColorMatrix in="SourceAlpha" type="matrix" values="0 0 0 0 0 0 0 0 0 0 0 0 0 0 0 0 0 0 127 0" result="hardAlpha"/>
<feOffset dx="9" dy="-3"/>
<feGaussianBlur stdDeviation="10"/>
<feComposite in2="hardAlpha" operator="arithmetic" k2="-1" k3="1"/>
<feColorMatrix type="matrix" values="0 0 0 0 0 0 0 0 0 0 0 0 0 0 0 0 0 0 0.17 0"/>
<feBlend mode="normal" in2="shape" result="effect1_innerShadow"/>
</filter>
<filter id="filter5_biii" x="14.3452" y="23.6963" width="68.897" height="72.7778" filterUnits="userSpaceOnUse" color-interpolation-filters="sRGB">
<feFlood flood-opacity="0" result="BackgroundImageFix"/>
<feGaussianBlur in="BackgroundImage" stdDeviation="10"/>
<feComposite in2="SourceAlpha" operator="in" result="effect1_backgroundBlur"/>
<feBlend mode="normal" in="SourceGraphic" in2="effect1_backgroundBlur" result="shape"/>
<feColorMatrix in="SourceAlpha" type="matrix" values="0 0 0 0 0 0 0 0 0 0 0 0 0 0 0 0 0 0 127 0" result="hardAlpha"/>
<feOffset dx="-10" dy="10"/>
<feGaussianBlur stdDeviation="5"/>
<feComposite in2="hardAlpha" operator="arithmetic" k2="-1" k3="1"/>
<feColorMatrix type="matrix" values="0 0 0 0 1 0 0 0 0 1 0 0 0 0 1 0 0 0 0.15 0"/>
<feBlend mode="normal" in2="shape" result="effect2_innerShadow"/>
<feColorMatrix in="SourceAlpha" type="matrix" values="0 0 0 0 0 0 0 0 0 0 0 0 0 0 0 0 0 0 127 0" result="hardAlpha"/>
<feOffset dy="-10"/>
<feGaussianBlur stdDeviation="5"/>
<feComposite in2="hardAlpha" operator="arithmetic" k2="-1" k3="1"/>
<feColorMatrix type="matrix" values="0 0 0 0 0.156863 0 0 0 0 0.67451 0 0 0 0 0.25098 0 0 0 0.05 0"/>
<feBlend mode="normal" in2="effect2_innerShadow" result="effect3_innerShadow"/>
<feColorMatrix in="SourceAlpha" type="matrix" values="0 0 0 0 0 0 0 0 0 0 0 0 0 0 0 0 0 0 127 0" result="hardAlpha"/>
<feOffset dx="-3" dy="6"/>
<feGaussianBlur stdDeviation="7.5"/>
<feComposite in2="hardAlpha" operator="arithmetic" k2="-1" k3="1"/>
<feColorMatrix type="matrix" values="0 0 0 0 0.0770313 0 0 0 0 0.6375 0 0 0 0 0.178935 0 0 0 0.2 0"/>
<feBlend mode="normal" in2="effect3_innerShadow" result="effect4_innerShadow"/>
</filter>
<filter id="filter6_biii" x="-16" y="-2.39648" width="73.2573" height="69.4937" filterUnits="userSpaceOnUse" color-interpolation-filters="sRGB">
<feFlood flood-opacity="0" result="BackgroundImageFix"/>
<feGaussianBlur in="BackgroundImage" stdDeviation="10"/>
<feComposite in2="SourceAlpha" operator="in" result="effect1_backgroundBlur"/>
<feBlend mode="normal" in="SourceGraphic" in2="effect1_backgroundBlur" result="shape"/>
<feColorMatrix in="SourceAlpha" type="matrix" values="0 0 0 0 0 0 0 0 0 0 0 0 0 0 0 0 0 0 127 0" result="hardAlpha"/>
<feOffset dx="-10" dy="10"/>
<feGaussianBlur stdDeviation="5"/>
<feComposite in2="hardAlpha" operator="arithmetic" k2="-1" k3="1"/>
<feColorMatrix type="matrix" values="0 0 0 0 1 0 0 0 0 1 0 0 0 0 1 0 0 0 0.15 0"/>
<feBlend mode="normal" in2="shape" result="effect2_innerShadow"/>
<feColorMatrix in="SourceAlpha" type="matrix" values="0 0 0 0 0 0 0 0 0 0 0 0 0 0 0 0 0 0 127 0" result="hardAlpha"/>
<feOffset dy="-10"/>
<feGaussianBlur stdDeviation="5"/>
<feComposite in2="hardAlpha" operator="arithmetic" k2="-1" k3="1"/>
<feColorMatrix type="matrix" values="0 0 0 0 0.156863 0 0 0 0 0.67451 0 0 0 0 0.25098 0 0 0 0.05 0"/>
<feBlend mode="normal" in2="effect2_innerShadow" result="effect3_innerShadow"/>
<feColorMatrix in="SourceAlpha" type="matrix" values="0 0 0 0 0 0 0 0 0 0 0 0 0 0 0 0 0 0 127 0" result="hardAlpha"/>
<feOffset dx="-3" dy="6"/>
<feGaussianBlur stdDeviation="7.5"/>
<feComposite in2="hardAlpha" operator="arithmetic" k2="-1" k3="1"/>
<feColorMatrix type="matrix" values="0 0 0 0 0.0770313 0 0 0 0 0.6375 0 0 0 0 0.178935 0 0 0 0.2 0"/>
<feBlend mode="normal" in2="effect3_innerShadow" result="effect4_innerShadow"/>
</filter>
<filter id="filter7_bdii" x="30" y="-6" width="55" height="55" filterUnits="userSpaceOnUse" color-interpolation-filters="sRGB">
<feFlood flood-opacity="0" result="BackgroundImageFix"/>
<feGaussianBlur in="BackgroundImage" stdDeviation="10"/>
<feComposite in2="SourceAlpha" operator="in" result="effect1_backgroundBlur"/>
<feColorMatrix in="SourceAlpha" type="matrix" values="0 0 0 0 0 0 0 0 0 0 0 0 0 0 0 0 0 0 127 0" result="hardAlpha"/>
<feOffset dx="5" dy="5"/>
<feGaussianBlur stdDeviation="5"/>
<feComposite in2="hardAlpha" operator="out"/>
<feColorMatrix type="matrix" values="0 0 0 0 0.223529 0 0 0 0 0.643137 0 0 0 0 0.360784 0 0 0 0.8 0"/>
<feBlend mode="normal" in2="effect1_backgroundBlur" result="effect2_dropShadow"/>
<feBlend mode="normal" in="SourceGraphic" in2="effect2_dropShadow" result="shape"/>
<feColorMatrix in="SourceAlpha" type="matrix" values="0 0 0 0 0 0 0 0 0 0 0 0 0 0 0 0 0 0 127 0" result="hardAlpha"/>
<feOffset dx="-10" dy="10"/>
<feGaussianBlur stdDeviation="5"/>
<feComposite in2="hardAlpha" operator="arithmetic" k2="-1" k3="1"/>
<feColorMatrix type="matrix" values="0 0 0 0 1 0 0 0 0 1 0 0 0 0 1 0 0 0 0.15 0"/>
<feBlend mode="normal" in2="shape" result="effect3_innerShadow"/>
<feColorMatrix in="SourceAlpha" type="matrix" values="0 0 0 0 0 0 0 0 0 0 0 0 0 0 0 0 0 0 127 0" result="hardAlpha"/>
<feOffset dx="3" dy="-6"/>
<feGaussianBlur stdDeviation="4.5"/>
<feComposite in2="hardAlpha" operator="arithmetic" k2="-1" k3="1"/>
<feColorMatrix type="matrix" values="0 0 0 0 0.0199306 0 0 0 0 0.341667 0 0 0 0 0.0521041 0 0 0 0.05 0"/>
<feBlend mode="normal" in2="effect3_innerShadow" result="effect4_innerShadow"/>
</filter>
<linearGradient id="paint0_linear" x1="73.377" y1="-1.36635e-06" x2="58.4709" y2="67.0006" gradientUnits="userSpaceOnUse">
<stop stop-color="#CAEFC3"/>
<stop offset="1" stop-color="#29AD56"/>
</linearGradient>
<linearGradient id="paint1_linear" x1="23.7048" y1="55.2114" x2="21.6033" y2="64.66" gradientUnits="userSpaceOnUse">
<stop stop-color="#1C8439"/>
<stop offset="1" stop-color="#00E3AE"/>
</linearGradient>
<linearGradient id="paint2_linear" x1="17.5099" y1="50.1895" x2="15.6951" y2="58.3561" gradientUnits="userSpaceOnUse">
<stop stop-color="#CAEFC3"/>
<stop offset="1" stop-color="#36B550"/>
</linearGradient>
<linearGradient id="paint3_linear" x1="23.7053" y1="55.2114" x2="21.6037" y2="64.66" gradientUnits="userSpaceOnUse">
<stop stop-color="#1C8439"/>
<stop offset="1" stop-color="#00E3AE"/>
</linearGradient>
<linearGradient id="paint4_linear" x1="73.379" y1="-1.36635e-06" x2="58.4728" y2="67.0006" gradientUnits="userSpaceOnUse">
<stop stop-color="#CAEFC3"/>
<stop offset="1" stop-color="#29AD56"/>
</linearGradient>
<linearGradient id="paint5_linear" x1="56.5561" y1="40.6962" x2="50.9833" y2="77.5821" gradientUnits="userSpaceOnUse">
<stop stop-color="#9BE15D"/>
<stop offset="1" stop-color="#00E3AE"/>
</linearGradient>
<linearGradient id="paint6_linear" x1="40.1912" y1="25.0362" x2="3.18685" y2="29.759" gradientUnits="userSpaceOnUse">
<stop stop-color="#9BE15D"/>
<stop offset="1" stop-color="#00E3AE"/>
</linearGradient>
<linearGradient id="paint7_linear" x1="63.3442" y1="14" x2="59.6172" y2="30.7546" gradientUnits="userSpaceOnUse">
<stop stop-color="#1C8439"/>
<stop offset="1" stop-color="#00E3AE"/>
</linearGradient>
</defs>
</svg>
