<svg width="16" height="16" viewBox="0 0 16 16" fill="none" xmlns="http://www.w3.org/2000/svg">
<path fill-rule="evenodd" clip-rule="evenodd" d="M7.8002 0.400391C3.605 0.400391 0.200195 3.80519 0.200195 8.00039C0.200195 12.1956 3.605 15.6004 7.8002 15.6004C11.9954 15.6004 15.4002 12.1956 15.4002 8.00039C15.4002 3.80519 11.9954 0.400391 7.8002 0.400391ZM7.0402 4.20039V7.24039H4.0002V8.76039H7.0402V11.8004H8.56019V8.76039H11.6002V7.24039H8.56019V4.20039H7.0402ZM1.7202 8.00039C1.7202 11.352 4.4486 14.0804 7.8002 14.0804C11.1518 14.0804 13.8802 11.352 13.8802 8.00039C13.8802 4.64879 11.1518 1.92039 7.8002 1.92039C4.4486 1.92039 1.7202 4.64879 1.7202 8.00039Z" fill="#2F52E4"/>
</svg>
