<svg width="83" height="87" viewBox="0 0 83 87" fill="none" xmlns="http://www.w3.org/2000/svg">
<path d="M46.394 18.0635L26.4476 23.4026C19.2125 25.3392 16.1351 30.6988 18.0801 37.9502L24.6676 62.5098C26.6445 69.8801 31.9667 72.8894 39.2017 70.9527L59.1481 65.6136C66.4998 63.6457 69.4837 58.4132 67.5068 51.0429L60.9193 26.4832C58.9743 19.2318 53.7457 16.0956 46.394 18.0635Z" fill="url(#paint0_linear)"/>
<g filter="url(#filter0_f)">
<rect width="31.7896" height="26.9438" rx="13.4719" transform="matrix(-0.259068 -0.965859 0.965992 -0.258571 32.7446 62.3853)" fill="#8237FF" fill-opacity="0.5"/>
</g>
<g filter="url(#filter1_b)">
<path d="M65.1509 30.7725H44.5008C37.0105 30.7725 32.6494 35.1537 32.6494 42.6609V68.0869C32.6494 75.7172 37.0105 80 44.5008 80H65.1509C72.7619 80 76.9998 75.7172 76.9998 68.0869V42.6609C76.9998 35.1537 72.7619 30.7725 65.1509 30.7725Z" fill="#BA90FF" fill-opacity="0.35"/>
<path d="M65.1509 30.2725H44.5008C40.6586 30.2725 37.5551 31.398 35.4121 33.5486C33.2694 35.6988 32.1494 38.8112 32.1494 42.6609V68.0869C32.1494 71.9962 33.2683 75.1162 35.4129 77.2586C37.5573 79.4008 40.6617 80.5 44.5008 80.5H65.1509C69.0485 80.5 72.1541 79.4018 74.2842 77.2572C76.4139 75.1131 77.4998 71.9924 77.4998 68.0869V42.6609C77.4998 38.815 76.4128 35.7019 74.285 33.5499C72.1563 31.397 69.0516 30.2725 65.1509 30.2725Z" stroke="url(#paint1_linear)" stroke-linecap="round" stroke-linejoin="round"/>
</g>
<g filter="url(#filter2_bd)">
<mask id="path-5-inside-1" fill="white">
<path fill-rule="evenodd" clip-rule="evenodd" d="M45.1659 42.2188V42.2434C44.104 42.2434 43.2441 43.1048 43.2441 44.1632C43.2441 45.2216 44.104 46.0831 45.1659 46.0831H52.5306C53.5925 46.0831 54.4549 45.2216 54.4549 44.1362C54.4549 43.0802 53.5925 42.2188 52.5306 42.2188H45.1659ZM64.483 57.209H45.1659C44.104 57.209 43.2441 56.3475 43.2441 55.2891C43.2441 54.2307 44.104 53.3668 45.1659 53.3668H64.483C65.5425 53.3668 66.4048 54.2307 66.4048 55.2891C66.4048 56.3475 65.5425 57.209 64.483 57.209ZM64.4831 68.4573H45.1661C44.4269 68.5557 43.7124 68.1865 43.3181 67.5712C42.9239 66.9312 42.9239 66.119 43.3181 65.5036C43.7124 64.8637 44.4269 64.5191 45.1661 64.5929H64.4831C65.4662 64.6914 66.2079 65.5282 66.2079 66.5374C66.2079 67.5195 65.4662 68.3588 64.4831 68.4573Z"/>
</mask>
<path fill-rule="evenodd" clip-rule="evenodd" d="M45.1659 42.2188V42.2434C44.104 42.2434 43.2441 43.1048 43.2441 44.1632C43.2441 45.2216 44.104 46.0831 45.1659 46.0831H52.5306C53.5925 46.0831 54.4549 45.2216 54.4549 44.1362C54.4549 43.0802 53.5925 42.2188 52.5306 42.2188H45.1659ZM64.483 57.209H45.1659C44.104 57.209 43.2441 56.3475 43.2441 55.2891C43.2441 54.2307 44.104 53.3668 45.1659 53.3668H64.483C65.5425 53.3668 66.4048 54.2307 66.4048 55.2891C66.4048 56.3475 65.5425 57.209 64.483 57.209ZM64.4831 68.4573H45.1661C44.4269 68.5557 43.7124 68.1865 43.3181 67.5712C42.9239 66.9312 42.9239 66.119 43.3181 65.5036C43.7124 64.8637 44.4269 64.5191 45.1661 64.5929H64.4831C65.4662 64.6914 66.2079 65.5282 66.2079 66.5374C66.2079 67.5195 65.4662 68.3588 64.4831 68.4573Z" fill="url(#paint2_linear)"/>
<path d="M45.1659 42.2434V42.6434H45.5659V42.2434H45.1659ZM45.1659 42.2188V41.8187H44.7659V42.2188H45.1659ZM45.1661 68.4573V68.0573H45.1395L45.1133 68.0608L45.1661 68.4573ZM64.4831 68.4573V68.8573H64.5031L64.523 68.8553L64.4831 68.4573ZM43.3181 67.5712L42.9775 67.781L42.9813 67.787L43.3181 67.5712ZM43.3181 65.5036L43.655 65.7194L43.6587 65.7134L43.3181 65.5036ZM45.1661 64.5929L45.1263 64.9909L45.1461 64.9929H45.1661V64.5929ZM64.4831 64.5929L64.523 64.1949L64.5031 64.1929H64.4831V64.5929ZM45.5659 42.2434V42.2188H44.7659V42.2434H45.5659ZM43.6441 44.1632C43.6441 43.3258 44.3248 42.6434 45.1659 42.6434V41.8434C43.8831 41.8434 42.8441 42.8839 42.8441 44.1632H43.6441ZM45.1659 45.6831C44.3248 45.6831 43.6441 45.0007 43.6441 44.1632H42.8441C42.8441 45.4426 43.8831 46.4831 45.1659 46.4831V45.6831ZM52.5306 45.6831H45.1659V46.4831H52.5306V45.6831ZM54.0549 44.1362C54.0549 45.0037 53.3687 45.6831 52.5306 45.6831V46.4831C53.8163 46.4831 54.8549 45.4396 54.8549 44.1362H54.0549ZM52.5306 42.6188C53.3726 42.6188 54.0549 43.3022 54.0549 44.1362H54.8549C54.8549 42.8583 53.8124 41.8187 52.5306 41.8187V42.6188ZM45.1659 42.6188H52.5306V41.8187H45.1659V42.6188ZM45.1659 57.609H64.483V56.809H45.1659V57.609ZM42.8441 55.2891C42.8441 56.5685 43.8831 57.609 45.1659 57.609V56.809C44.3248 56.809 43.6441 56.1265 43.6441 55.2891H42.8441ZM45.1659 52.9668C43.8825 52.9668 42.8441 54.0104 42.8441 55.2891H43.6441C43.6441 54.451 44.3255 53.7668 45.1659 53.7668V52.9668ZM64.483 52.9668H45.1659V53.7668H64.483V52.9668ZM66.8048 55.2891C66.8048 54.0101 65.7637 52.9668 64.483 52.9668V53.7668C65.3213 53.7668 66.0048 54.4513 66.0048 55.2891H66.8048ZM64.483 57.609C65.763 57.609 66.8048 56.5688 66.8048 55.2891H66.0048C66.0048 56.1262 65.3219 56.809 64.483 56.809V57.609ZM45.1661 68.8573H64.4831V68.0573H45.1661V68.8573ZM42.9813 67.787C43.452 68.5216 44.3127 68.9745 45.2189 68.8538L45.1133 68.0608C44.5411 68.137 43.9727 67.8515 43.6549 67.3554L42.9813 67.787ZM42.9813 65.2878C42.5012 66.0372 42.5057 67.015 42.9776 67.781L43.6587 67.3614C43.3421 66.8475 43.3466 66.2007 43.6549 65.7194L42.9813 65.2878ZM45.2058 64.1949C44.3168 64.1061 43.4534 64.5213 42.9776 65.2938L43.6587 65.7134C43.9713 65.206 44.5369 64.9321 45.1263 64.9909L45.2058 64.1949ZM64.4831 64.1929H45.1661V64.9929H64.4831V64.1929ZM66.6079 66.5374C66.6079 65.33 65.7177 64.3145 64.523 64.1949L64.4433 64.9909C65.2148 65.0682 65.8079 65.7264 65.8079 66.5374H66.6079ZM64.523 68.8553C65.7149 68.7359 66.6079 67.7206 66.6079 66.5374H65.8079C65.8079 67.3184 65.2176 67.9817 64.4433 68.0593L64.523 68.8553Z" fill="url(#paint3_linear)" mask="url(#path-5-inside-1)"/>
</g>
<defs>
<filter id="filter0_f" x="0.535645" y="0.73584" width="82.2095" height="85.6274" filterUnits="userSpaceOnUse" color-interpolation-filters="sRGB">
<feFlood flood-opacity="0" result="BackgroundImageFix"/>
<feBlend mode="normal" in="SourceGraphic" in2="BackgroundImageFix" result="shape"/>
<feGaussianBlur stdDeviation="13.5" result="effect1_foregroundBlur"/>
</filter>
<filter id="filter1_b" x="7.64941" y="5.77246" width="94.3506" height="99.2275" filterUnits="userSpaceOnUse" color-interpolation-filters="sRGB">
<feFlood flood-opacity="0" result="BackgroundImageFix"/>
<feGaussianBlur in="BackgroundImage" stdDeviation="12"/>
<feComposite in2="SourceAlpha" operator="in" result="effect1_backgroundBlur"/>
<feBlend mode="normal" in="SourceGraphic" in2="effect1_backgroundBlur" result="shape"/>
</filter>
<filter id="filter2_bd" x="28.0225" y="27.2188" width="53.3823" height="56.2544" filterUnits="userSpaceOnUse" color-interpolation-filters="sRGB">
<feFlood flood-opacity="0" result="BackgroundImageFix"/>
<feGaussianBlur in="BackgroundImage" stdDeviation="7.5"/>
<feComposite in2="SourceAlpha" operator="in" result="effect1_backgroundBlur"/>
<feColorMatrix in="SourceAlpha" type="matrix" values="0 0 0 0 0 0 0 0 0 0 0 0 0 0 0 0 0 0 127 0" result="hardAlpha"/>
<feOffset dx="5" dy="5"/>
<feGaussianBlur stdDeviation="5"/>
<feColorMatrix type="matrix" values="0 0 0 0 0.577356 0 0 0 0 0.359375 0 0 0 0 0.9375 0 0 0 0.5 0"/>
<feBlend mode="normal" in2="effect1_backgroundBlur" result="effect2_dropShadow"/>
<feBlend mode="normal" in="SourceGraphic" in2="effect2_dropShadow" result="shape"/>
</filter>
<linearGradient id="paint0_linear" x1="36.4196" y1="20.7333" x2="49.1493" y2="68.29" gradientUnits="userSpaceOnUse">
<stop stop-color="#BC94FF"/>
<stop offset="1" stop-color="#9F66FF"/>
</linearGradient>
<linearGradient id="paint1_linear" x1="39.7093" y1="36.5075" x2="71.6405" y2="72.137" gradientUnits="userSpaceOnUse">
<stop stop-color="white" stop-opacity="0.25"/>
<stop offset="1" stop-color="white" stop-opacity="0"/>
</linearGradient>
<linearGradient id="paint2_linear" x1="64.747" y1="46.9598" x2="38.6956" y2="47.7162" gradientUnits="userSpaceOnUse">
<stop stop-color="white"/>
<stop offset="1" stop-color="white" stop-opacity="0.2"/>
</linearGradient>
<linearGradient id="paint3_linear" x1="46.7445" y1="45.2774" x2="63.7946" y2="64.0843" gradientUnits="userSpaceOnUse">
<stop stop-color="white" stop-opacity="0.25"/>
<stop offset="1" stop-color="white" stop-opacity="0"/>
</linearGradient>
</defs>
</svg>
