<svg width="13" height="17" viewBox="0 0 13 17" fill="none" xmlns="http://www.w3.org/2000/svg">
<path fill-rule="evenodd" clip-rule="evenodd" d="M6.40314 0.5C4.05592 0.5 2.15313 2.41091 2.15313 4.76814C2.15313 7.12537 4.05592 9.03628 6.40314 9.03628C8.75036 9.03628 10.6532 7.12537 10.6532 4.76814C10.6532 2.41091 8.75036 0.5 6.40314 0.5ZM6.40285 1.65781C8.11317 1.65781 9.49965 3.05021 9.49965 4.76782C9.49965 6.48542 8.11317 7.87782 6.40285 7.87782C4.69254 7.87782 3.30605 6.48542 3.30605 4.76782C3.30605 3.05021 4.69254 1.65781 6.40285 1.65781ZM4.66404 10.7561C4.04186 10.7993 3.41297 10.8881 2.79264 11.0211C1.59534 11.2677 0.637482 11.7604 0.229791 12.5793C0.0760219 12.8995 -0.00128826 13.2424 1.6236e-05 13.5896C-0.000445074 13.9342 0.0762392 14.2775 0.224494 14.5916C0.615954 15.4011 1.46224 15.8591 2.60499 16.113L2.8097 16.1558C3.41319 16.2919 4.04227 16.3836 4.67557 16.4266C4.72951 16.4424 4.85806 16.4571 4.99837 16.4643L5.11378 16.4686C5.17311 16.47 5.24046 16.4704 5.34081 16.4704C6.25108 16.5204 7.19474 16.5058 8.13401 16.4259C8.63456 16.3916 9.13848 16.3262 9.63818 16.2303L10.0121 16.1526C11.246 15.9092 12.1701 15.4463 12.5749 14.5925C12.875 13.9587 12.875 13.2232 12.575 12.5896C12.1712 11.738 11.259 11.2789 10.0027 11.0201C9.50981 10.9149 9.00896 10.837 8.50454 10.7873L8.13576 10.7561C6.98075 10.6542 5.81906 10.6542 4.66404 10.7561ZM8.03474 11.9094L8.04488 11.9102C8.6238 11.9509 9.19918 12.0322 9.76683 12.1534C10.7 12.3456 11.3332 12.6643 11.5336 13.0868C11.6844 13.4054 11.6844 13.7756 11.5334 14.0945C11.3462 14.4893 10.7775 14.7943 9.95547 14.9807L9.77549 15.0188C9.19668 15.1479 8.62321 15.2312 8.04594 15.2707C7.15024 15.3469 6.25985 15.3607 5.37171 15.3126L5.05682 15.3072C4.96941 15.3028 4.89574 15.2943 4.82747 15.2806C4.28687 15.2398 3.80042 15.1753 3.32811 15.0816L3.04609 15.0219C2.11006 14.8385 1.47121 14.5184 1.26408 14.0901C1.1916 13.9365 1.15289 13.7632 1.15312 13.5877C1.15247 13.4132 1.19068 13.2438 1.26484 13.0893C1.46623 12.6849 2.14325 12.3366 3.02874 12.1542C3.60048 12.0317 4.17558 11.9505 4.75424 11.9102C5.85272 11.8134 6.94687 11.8134 8.03474 11.9094Z" fill="white"/>
</svg>
