<svg xmlns="http://www.w3.org/2000/svg" width="15.625" height="15.625" viewBox="0 0 15.625 15.625">
  <path id="Icon_ionic-md-settings" data-name="Icon ionic-md-settings" d="M17.12,11.969a4.886,4.886,0,0,0,.04-.781c0-.274-.04-.508-.04-.781L18.8,9.117a.359.359,0,0,0,.08-.508l-1.6-2.7a.389.389,0,0,0-.48-.156l-2,.781a5.815,5.815,0,0,0-1.358-.781l-.28-2.07a.428.428,0,0,0-.4-.312h-3.2a.428.428,0,0,0-.4.312l-.32,2.07a6.766,6.766,0,0,0-1.359.781l-2-.781a.374.374,0,0,0-.48.156l-1.6,2.7a.472.472,0,0,0,.08.508l1.718,1.289c0,.274-.04.508-.04.781s.04.508.04.781L3.537,13.258a.359.359,0,0,0-.08.508l1.6,2.7a.389.389,0,0,0,.48.156l2-.781a5.814,5.814,0,0,0,1.358.781l.32,2.07a.387.387,0,0,0,.4.312h3.2a.428.428,0,0,0,.4-.312l.32-2.07a6.762,6.762,0,0,0,1.358-.781l2,.781a.374.374,0,0,0,.48-.156l1.6-2.7a.471.471,0,0,0-.08-.508Zm-5.953,1.953a2.735,2.735,0,1,1,2.8-2.734A2.749,2.749,0,0,1,11.167,13.922Z" transform="translate(-3.375 -3.375)" fill="#12161c"/>
</svg>
