<svg width="24" height="24" viewBox="0 0 24 24" fill="none" xmlns="http://www.w3.org/2000/svg">
<path d="M12.012 14.8299C10.4075 14.8299 9.10962 13.5799 9.10962 12.0099C9.10962 10.4399 10.4075 9.17993 12.012 9.17993C13.6165 9.17993 14.8837 10.4399 14.8837 12.0099C14.8837 13.5799 13.6165 14.8299 12.012 14.8299Z" fill="#BCBECC"/>
<path opacity="0.4" d="M21.23 14.37C21.0359 14.07 20.7599 13.77 20.4023 13.58C20.1161 13.44 19.9322 13.21 19.7686 12.94C19.2474 12.08 19.554 10.95 20.4227 10.44C21.4447 9.87 21.7717 8.6 21.1789 7.61L20.4942 6.43C19.9117 5.44 18.6343 5.09 17.6225 5.67C16.7232 6.15 15.5684 5.83 15.0472 4.98C14.8837 4.7 14.7917 4.4 14.8121 4.1C14.8428 3.71 14.7202 3.34 14.5362 3.04C14.1581 2.42 13.4734 2 12.7171 2H11.2762C10.5301 2.02 9.84543 2.42 9.46731 3.04C9.27314 3.34 9.16072 3.71 9.18116 4.1C9.2016 4.4 9.10962 4.7 8.94611 4.98C8.42491 5.83 7.2701 6.15 6.381 5.67C5.35904 5.09 4.09181 5.44 3.49908 6.43L2.81437 7.61C2.23185 8.6 2.55888 9.87 3.57062 10.44C4.43928 10.95 4.74587 12.08 4.23489 12.94C4.06116 13.21 3.8772 13.44 3.59106 13.58C3.24359 13.77 2.937 14.07 2.77349 14.37C2.39536 14.99 2.4158 15.77 2.79393 16.42L3.49908 17.62C3.8772 18.26 4.58235 18.66 5.31816 18.66C5.66563 18.66 6.07441 18.56 6.40144 18.36C6.65693 18.19 6.96351 18.13 7.30076 18.13C8.3125 18.13 9.16072 18.96 9.18116 19.95C9.18116 21.1 10.1214 22 11.3068 22H12.6967C13.8719 22 14.8121 21.1 14.8121 19.95C14.8428 18.96 15.691 18.13 16.7028 18.13C17.0298 18.13 17.3364 18.19 17.6021 18.36C17.9291 18.56 18.3277 18.66 18.6854 18.66C19.411 18.66 20.1161 18.26 20.4942 17.62L21.2096 16.42C21.5775 15.75 21.6082 14.99 21.23 14.37Z" fill="#BCBECC"/>
</svg>
