<svg xmlns="http://www.w3.org/2000/svg" width="15.625" height="15.625" viewBox="0 0 15.625 15.625">
  <path id="Icon_ionic-ios-list-box" data-name="Icon ionic-ios-list-box" d="M3.375,4.678V17.7a1.3,1.3,0,0,0,1.3,1.3H17.7A1.3,1.3,0,0,0,19,17.7V4.678a1.3,1.3,0,0,0-1.3-1.3H4.678A1.3,1.3,0,0,0,3.375,4.678ZM6.728,15.834a.75.75,0,1,1,.646-.646A.747.747,0,0,1,6.728,15.834Zm0-3.905a.75.75,0,1,1,.646-.646A.747.747,0,0,1,6.728,11.929Zm0-3.905a.75.75,0,1,1,.646-.646A.747.747,0,0,1,6.728,8.024Zm9.29,7.593H9.259a.527.527,0,0,1-.526-.526h0a.527.527,0,0,1,.526-.526h6.759a.527.527,0,0,1,.526.526h0A.527.527,0,0,1,16.018,15.616Zm0-3.905H9.259a.527.527,0,0,1-.526-.526h0a.527.527,0,0,1,.526-.526h6.759a.527.527,0,0,1,.526.526h0A.527.527,0,0,1,16.018,11.711Zm0-3.905H9.259a.527.527,0,0,1-.526-.526h0a.527.527,0,0,1,.526-.526h6.759a.527.527,0,0,1,.526.526h0A.527.527,0,0,1,16.018,7.806Z" transform="translate(-3.375 -3.375)"/>
</svg>
