<svg width="44" height="38" viewBox="0 0 44 38" fill="none" xmlns="http://www.w3.org/2000/svg">
<path d="M42.0713 27.5951V4.9762C42.0713 2.97669 40.4518 1.35718 38.4523 1.35718H4.97628C2.97677 1.35718 1.35725 2.97669 1.35725 4.9762V27.5951C1.35725 29.5946 2.97677 31.2141 4.97628 31.2141H38.4523C40.4518 31.2141 42.0713 29.5946 42.0713 27.5951Z" fill="white"/>
<path d="M1.35725 22.1661H13.1191C15.1186 22.1661 16.7381 20.5466 16.7381 18.5471V14.0233C16.7381 12.0238 15.1186 10.4043 13.1191 10.4043H1.35725V22.1661Z" fill="#FFD200"/>
<path d="M42.0721 26.2378L33.4769 17.6426L24.8817 26.2378H30.3102V35.7377C30.3102 36.2372 30.7156 36.6425 31.215 36.6425H35.7388C36.2382 36.6425 36.6435 36.2372 36.6435 35.7377V26.2378H42.0721Z" fill="#FFD200"/>
<path d="M5.42866 27.5951V4.9762C5.42866 2.97669 7.04818 1.35718 9.04769 1.35718H4.97628C2.97677 1.35718 1.35725 2.97669 1.35725 4.9762V27.5951C1.35725 29.5946 2.97677 31.2141 4.97628 31.2141H9.04769C7.04818 31.2141 5.42866 29.5946 5.42866 27.5951Z" fill="#D5DBE1"/>
<path d="M1.35725 10.4043H5.42866V22.1661H1.35725V10.4043Z" fill="#D6B000"/>
<path d="M33.4769 17.6426L24.8817 26.2378H28.9531L35.5126 19.6783L33.4769 17.6426Z" fill="#D6B000"/>
<path d="M34.3807 35.7382V26.2383H30.3093V35.7382C30.3093 36.2377 30.7146 36.643 31.214 36.643H35.2854C34.786 36.643 34.3807 36.2377 34.3807 35.7382Z" fill="#D6B000"/>
<path d="M35.7377 38H31.2139C29.9672 38 28.952 36.9849 28.952 35.7382V27.5954H24.8806C24.3323 27.5954 23.8365 27.2642 23.6266 26.7576C23.4167 26.2509 23.5325 25.6664 23.9216 25.2792L32.5168 16.684C33.047 16.1538 33.9065 16.1538 34.4367 16.684L43.0318 25.2792C43.4191 25.6682 43.5367 26.2509 43.3268 26.7576C43.1169 27.2642 42.6211 27.5954 42.0728 27.5954H37.9996V35.7382C37.9996 36.9849 36.9845 38 35.7377 38ZM31.6663 35.2858H35.2853V26.2382C35.2853 25.4891 35.8933 24.8811 36.6425 24.8811H38.794L33.4758 19.5629L28.1576 24.8811H30.3092C31.0583 24.8811 31.6663 25.4891 31.6663 26.2382V35.2858Z" fill="black"/>
<path d="M20.357 32.5712H4.97616C2.23113 32.5712 0 30.3401 0 27.5951V4.97616C0 2.23113 2.23113 0 4.97616 0H38.4521C41.1972 0 43.4283 2.23113 43.4283 4.97616V16.738H40.714V4.97616C40.714 3.72941 39.6989 2.71427 38.4521 2.71427H4.97616C3.7294 2.71427 2.71427 3.72941 2.71427 4.97616V27.5951C2.71427 28.8418 3.7294 29.857 4.97616 29.857H20.357V32.5712Z" fill="black"/>
<path d="M13.119 23.5237H1.35713C0.607996 23.5237 0 22.9157 0 22.1666V10.4047C0 9.6556 0.607996 9.04761 1.35713 9.04761H13.119C15.864 9.04761 18.0951 11.2787 18.0951 14.0238V18.5476C18.0951 21.2926 15.864 23.5237 13.119 23.5237ZM2.71427 20.8095H13.119C14.3657 20.8095 15.3809 19.7943 15.3809 18.5476V14.0238C15.3809 12.777 14.3657 11.7619 13.119 11.7619H2.71427V20.8095Z" fill="black"/>
<path d="M9.04761 18.0948C10.047 18.0948 10.8571 17.2847 10.8571 16.2853C10.8571 15.286 10.047 14.4758 9.04761 14.4758C8.04825 14.4758 7.2381 15.286 7.2381 16.2853C7.2381 17.2847 8.04825 18.0948 9.04761 18.0948Z" fill="black"/>
</svg>
