<svg width="44" height="39" viewBox="0 0 44 39" fill="none" xmlns="http://www.w3.org/2000/svg">
<path d="M41.9794 27.7848V5.21536C41.9794 3.22022 40.3634 1.60425 38.3683 1.60425H4.96551C2.97037 1.60425 1.3544 3.22022 1.3544 5.21536V27.7848C1.3544 29.7799 2.97037 31.3959 4.96551 31.3959H38.3683C40.3634 31.3959 41.9794 29.7799 41.9794 27.7848Z" fill="white"/>
<path d="M1.3544 22.3679H13.0905C15.0857 22.3679 16.7016 20.7519 16.7016 18.7568V14.2429C16.7016 12.2478 15.0857 10.6318 13.0905 10.6318H1.3544V22.3679Z" fill="#FFD200"/>
<path d="M31.5978 36.8128C37.3316 36.8128 41.9798 32.1646 41.9798 26.4308C41.9798 20.697 37.3316 16.0488 31.5978 16.0488C25.864 16.0488 21.2159 20.697 21.2159 26.4308C21.2159 32.1646 25.864 36.8128 31.5978 36.8128Z" fill="#FFD200"/>
<path d="M5.41691 27.7848V5.21536C5.41691 3.22022 7.03288 1.60425 9.02802 1.60425H4.96552C2.97037 1.60425 1.3544 3.22022 1.3544 5.21536V27.7848C1.3544 29.7799 2.97037 31.3959 4.96552 31.3959H9.02802C7.03288 31.3959 5.41691 29.7799 5.41691 27.7848Z" fill="#D5DBE1"/>
<path d="M1.3544 10.6318H5.4169V22.3679H1.3544V10.6318Z" fill="#D6B000"/>
<path d="M25.2784 26.4308C25.2784 21.3933 28.8678 17.1954 33.6291 16.251C32.9718 16.121 32.2929 16.0488 31.5978 16.0488C25.8634 16.0488 21.2159 20.6963 21.2159 26.4308C21.2159 32.1652 25.8634 36.8128 31.5978 36.8128C32.2929 36.8128 32.9718 36.7423 33.6291 36.6105C28.8678 35.6662 25.2784 31.4683 25.2784 26.4308Z" fill="#D6B000"/>
<path d="M31.5976 38.1666C25.1265 38.1666 19.8615 32.9016 19.8615 26.4304C19.8615 19.9593 25.1265 14.6943 31.5976 14.6943C38.0687 14.6943 43.3337 19.9593 43.3337 26.4304C43.3337 32.9016 38.0687 38.1666 31.5976 38.1666ZM31.5976 17.4027C26.6197 17.4027 22.5698 21.4525 22.5698 26.4304C22.5698 31.4084 26.6197 35.4582 31.5976 35.4582C36.5755 35.4582 40.6254 31.4084 40.6254 26.4304C40.6254 21.4525 36.5755 17.4027 31.5976 17.4027Z" fill="black"/>
<path d="M29.792 31.3962C29.4345 31.3962 29.0878 31.2535 28.835 30.9989L25.6753 27.8392L27.591 25.9235L29.7234 28.0559L34.6399 22.3828L36.6856 24.1559L30.8175 30.9267C30.572 31.2102 30.2181 31.3799 29.8425 31.3943C29.8245 31.3962 29.8082 31.3962 29.792 31.3962Z" fill="black"/>
<path d="M16.7014 32.75H4.96528C2.22625 32.75 0 30.5238 0 27.7847V5.21528C0 2.47625 2.22625 0.25 4.96528 0.25H38.368C41.1071 0.25 43.3333 2.47625 43.3333 5.21528V13.3403H40.625V5.21528C40.625 3.97125 39.6121 2.95833 38.368 2.95833H4.96528C3.72125 2.95833 2.70833 3.97125 2.70833 5.21528V27.7847C2.70833 29.0288 3.72125 30.0417 4.96528 30.0417H16.7014V32.75Z" fill="black"/>
<path d="M13.0903 23.7223H1.35417C0.606667 23.7223 0 23.1156 0 22.3681V10.632C0 9.8845 0.606667 9.27783 1.35417 9.27783H13.0903C15.8293 9.27783 18.0556 11.5041 18.0556 14.2431V18.757C18.0556 21.496 15.8293 23.7223 13.0903 23.7223ZM2.70833 21.014H13.0903C14.3343 21.014 15.3472 20.001 15.3472 18.757V14.2431C15.3472 12.9991 14.3343 11.9862 13.0903 11.9862H2.70833V21.014Z" fill="black"/>
<path d="M9.02791 18.3054C10.0251 18.3054 10.8335 17.497 10.8335 16.4999C10.8335 15.5027 10.0251 14.6943 9.02791 14.6943C8.03073 14.6943 7.22235 15.5027 7.22235 16.4999C7.22235 17.497 8.03073 18.3054 9.02791 18.3054Z" fill="black"/>
</svg>
